G04 #@! TF.GenerationSoftware,KiCad,Pcbnew,(5.1.4)-1*
G04 #@! TF.CreationDate,2020-05-14T10:00:22+09:00*
G04 #@! TF.ProjectId,linearpowerboard,6c696e65-6172-4706-9f77-6572626f6172,2.1*
G04 #@! TF.SameCoordinates,Original*
G04 #@! TF.FileFunction,Legend,Bot*
G04 #@! TF.FilePolarity,Positive*
%FSLAX46Y46*%
G04 Gerber Fmt 4.6, Leading zero omitted, Abs format (unit mm)*
G04 Created by KiCad (PCBNEW (5.1.4)-1) date 2020-05-14 10:00:22*
%MOMM*%
%LPD*%
G04 APERTURE LIST*
%ADD10C,0.300000*%
%ADD11C,0.010000*%
G04 APERTURE END LIST*
D10*
X176733417Y-129074954D02*
X176661988Y-129146382D01*
X176447702Y-129217811D01*
X176304845Y-129217811D01*
X176090560Y-129146382D01*
X175947702Y-129003525D01*
X175876274Y-128860668D01*
X175804845Y-128574954D01*
X175804845Y-128360668D01*
X175876274Y-128074954D01*
X175947702Y-127932097D01*
X176090560Y-127789240D01*
X176304845Y-127717811D01*
X176447702Y-127717811D01*
X176661988Y-127789240D01*
X176733417Y-127860668D01*
X178233417Y-129074954D02*
X178161988Y-129146382D01*
X177947702Y-129217811D01*
X177804845Y-129217811D01*
X177590560Y-129146382D01*
X177447702Y-129003525D01*
X177376274Y-128860668D01*
X177304845Y-128574954D01*
X177304845Y-128360668D01*
X177376274Y-128074954D01*
X177447702Y-127932097D01*
X177590560Y-127789240D01*
X177804845Y-127717811D01*
X177947702Y-127717811D01*
X178161988Y-127789240D01*
X178233417Y-127860668D01*
X180519131Y-128432097D02*
X180733417Y-128503525D01*
X180804845Y-128574954D01*
X180876274Y-128717811D01*
X180876274Y-128932097D01*
X180804845Y-129074954D01*
X180733417Y-129146382D01*
X180590560Y-129217811D01*
X180019131Y-129217811D01*
X180019131Y-127717811D01*
X180519131Y-127717811D01*
X180661988Y-127789240D01*
X180733417Y-127860668D01*
X180804845Y-128003525D01*
X180804845Y-128146382D01*
X180733417Y-128289240D01*
X180661988Y-128360668D01*
X180519131Y-128432097D01*
X180019131Y-128432097D01*
X181804845Y-128503525D02*
X181804845Y-129217811D01*
X181304845Y-127717811D02*
X181804845Y-128503525D01*
X182304845Y-127717811D01*
X182804845Y-128646382D02*
X183947702Y-128646382D01*
X184661988Y-129217811D02*
X184661988Y-127717811D01*
X185519131Y-129217811D01*
X185519131Y-127717811D01*
X187090560Y-129074954D02*
X187019131Y-129146382D01*
X186804845Y-129217811D01*
X186661988Y-129217811D01*
X186447702Y-129146382D01*
X186304845Y-129003525D01*
X186233417Y-128860668D01*
X186161988Y-128574954D01*
X186161988Y-128360668D01*
X186233417Y-128074954D01*
X186304845Y-127932097D01*
X186447702Y-127789240D01*
X186661988Y-127717811D01*
X186804845Y-127717811D01*
X187019131Y-127789240D01*
X187090560Y-127860668D01*
X187733417Y-128646382D02*
X188876274Y-128646382D01*
X189519131Y-129146382D02*
X189733417Y-129217811D01*
X190090560Y-129217811D01*
X190233417Y-129146382D01*
X190304845Y-129074954D01*
X190376274Y-128932097D01*
X190376274Y-128789240D01*
X190304845Y-128646382D01*
X190233417Y-128574954D01*
X190090560Y-128503525D01*
X189804845Y-128432097D01*
X189661988Y-128360668D01*
X189590560Y-128289240D01*
X189519131Y-128146382D01*
X189519131Y-128003525D01*
X189590560Y-127860668D01*
X189661988Y-127789240D01*
X189804845Y-127717811D01*
X190161988Y-127717811D01*
X190376274Y-127789240D01*
X190947702Y-128789240D02*
X191661988Y-128789240D01*
X190804845Y-129217811D02*
X191304845Y-127717811D01*
X191804845Y-129217811D01*
X194090560Y-128217811D02*
X194090560Y-129217811D01*
X193733417Y-127646382D02*
X193376274Y-128717811D01*
X194304845Y-128717811D01*
X194876274Y-129074954D02*
X194947702Y-129146382D01*
X194876274Y-129217811D01*
X194804845Y-129146382D01*
X194876274Y-129074954D01*
X194876274Y-129217811D01*
X195876274Y-127717811D02*
X196019131Y-127717811D01*
X196161988Y-127789240D01*
X196233417Y-127860668D01*
X196304845Y-128003525D01*
X196376274Y-128289240D01*
X196376274Y-128646382D01*
X196304845Y-128932097D01*
X196233417Y-129074954D01*
X196161988Y-129146382D01*
X196019131Y-129217811D01*
X195876274Y-129217811D01*
X195733417Y-129146382D01*
X195661988Y-129074954D01*
X195590560Y-128932097D01*
X195519131Y-128646382D01*
X195519131Y-128289240D01*
X195590560Y-128003525D01*
X195661988Y-127860668D01*
X195733417Y-127789240D01*
X195876274Y-127717811D01*
D11*
G36*
X190950000Y-94558334D02*
G01*
X190950000Y-93129584D01*
X190950188Y-92887905D01*
X190950732Y-92659084D01*
X190951599Y-92446568D01*
X190952758Y-92253807D01*
X190954178Y-92084250D01*
X190955828Y-91941347D01*
X190957675Y-91828546D01*
X190959688Y-91749297D01*
X190961836Y-91707049D01*
X190963054Y-91700834D01*
X190984160Y-91709139D01*
X191041232Y-91733241D01*
X191131476Y-91771917D01*
X191252096Y-91823944D01*
X191400298Y-91888101D01*
X191573285Y-91963165D01*
X191768262Y-92047914D01*
X191982436Y-92141126D01*
X192213009Y-92241578D01*
X192457187Y-92348049D01*
X192712175Y-92459315D01*
X192975178Y-92574155D01*
X193243400Y-92691346D01*
X193514046Y-92809666D01*
X193784322Y-92927893D01*
X194051430Y-93044805D01*
X194312578Y-93159179D01*
X194564969Y-93269793D01*
X194805808Y-93375424D01*
X195032300Y-93474852D01*
X195241649Y-93566852D01*
X195431062Y-93650204D01*
X195597741Y-93723684D01*
X195738893Y-93786071D01*
X195851721Y-93836141D01*
X195933431Y-93872674D01*
X195981228Y-93894447D01*
X195993122Y-93900338D01*
X195975810Y-93909990D01*
X195921516Y-93934808D01*
X195832417Y-93973877D01*
X195710691Y-94026281D01*
X195558516Y-94091106D01*
X195378071Y-94167437D01*
X195171532Y-94254360D01*
X194941078Y-94350958D01*
X194688886Y-94456319D01*
X194417135Y-94569525D01*
X194128002Y-94689664D01*
X193823665Y-94815820D01*
X193506302Y-94947078D01*
X193215571Y-95067071D01*
X192888467Y-95202083D01*
X192572447Y-95332788D01*
X192269689Y-95458273D01*
X191982373Y-95577623D01*
X191712676Y-95689925D01*
X191462777Y-95794265D01*
X191234855Y-95889729D01*
X191031087Y-95975402D01*
X190853654Y-96050372D01*
X190704733Y-96113724D01*
X190586502Y-96164544D01*
X190501140Y-96201918D01*
X190450826Y-96224933D01*
X190437283Y-96232595D01*
X190458297Y-96242161D01*
X190516214Y-96266991D01*
X190608821Y-96306161D01*
X190733904Y-96358748D01*
X190889251Y-96423830D01*
X191072647Y-96500483D01*
X191281879Y-96587784D01*
X191514735Y-96684811D01*
X191768999Y-96790640D01*
X192042460Y-96904349D01*
X192332903Y-97025014D01*
X192638116Y-97151713D01*
X192955884Y-97283523D01*
X193230238Y-97397245D01*
X193556534Y-97532529D01*
X193871938Y-97663441D01*
X194174253Y-97789062D01*
X194461281Y-97908472D01*
X194730824Y-98020753D01*
X194980685Y-98124986D01*
X195208667Y-98220252D01*
X195412573Y-98305631D01*
X195590204Y-98380205D01*
X195739363Y-98443056D01*
X195857853Y-98493263D01*
X195943476Y-98529908D01*
X195994036Y-98552071D01*
X196007801Y-98558834D01*
X195988783Y-98568482D01*
X195933275Y-98594106D01*
X195843561Y-98634694D01*
X195721927Y-98689231D01*
X195570657Y-98756706D01*
X195392036Y-98836106D01*
X195188349Y-98926418D01*
X194961880Y-99026628D01*
X194714914Y-99135725D01*
X194449736Y-99252695D01*
X194168631Y-99376526D01*
X193873884Y-99506205D01*
X193567779Y-99640719D01*
X193505314Y-99668149D01*
X193196889Y-99803621D01*
X192899145Y-99934502D01*
X192614386Y-100059774D01*
X192344917Y-100178420D01*
X192093040Y-100289422D01*
X191861061Y-100391761D01*
X191651282Y-100484420D01*
X191466009Y-100566382D01*
X191307544Y-100636628D01*
X191178192Y-100694140D01*
X191080257Y-100737902D01*
X191016042Y-100766894D01*
X190987852Y-100780100D01*
X190986756Y-100780743D01*
X190983071Y-100804478D01*
X190980009Y-100865522D01*
X190977643Y-100958854D01*
X190976046Y-101079455D01*
X190975292Y-101222303D01*
X190975454Y-101382379D01*
X190976172Y-101504594D01*
X190981750Y-102214582D01*
X194082667Y-100778399D01*
X194441389Y-100612252D01*
X194799705Y-100446285D01*
X195154755Y-100281821D01*
X195503680Y-100120185D01*
X195843620Y-99962702D01*
X196171717Y-99810698D01*
X196485112Y-99665496D01*
X196780944Y-99528421D01*
X197056356Y-99400799D01*
X197308487Y-99283954D01*
X197534479Y-99179211D01*
X197731471Y-99087895D01*
X197896606Y-99011330D01*
X198027024Y-98950841D01*
X198058249Y-98936353D01*
X198267754Y-98838531D01*
X198451078Y-98751687D01*
X198606232Y-98676811D01*
X198731228Y-98614892D01*
X198824076Y-98566920D01*
X198882788Y-98533886D01*
X198905375Y-98516779D01*
X198904916Y-98514956D01*
X198882356Y-98505148D01*
X198822929Y-98480095D01*
X198728885Y-98440730D01*
X198602475Y-98387990D01*
X198445952Y-98322809D01*
X198261566Y-98246123D01*
X198051569Y-98158867D01*
X197818211Y-98061976D01*
X197563743Y-97956385D01*
X197290418Y-97843029D01*
X197000486Y-97722843D01*
X196696198Y-97596763D01*
X196379806Y-97465723D01*
X196157000Y-97373477D01*
X195833829Y-97239637D01*
X195521371Y-97110118D01*
X195221865Y-96985854D01*
X194937550Y-96867778D01*
X194670664Y-96756824D01*
X194423445Y-96653925D01*
X194198132Y-96560015D01*
X193996964Y-96476027D01*
X193822179Y-96402895D01*
X193676016Y-96341553D01*
X193560712Y-96292933D01*
X193478507Y-96257969D01*
X193431640Y-96237596D01*
X193421071Y-96232529D01*
X193438358Y-96222818D01*
X193492587Y-96197890D01*
X193581568Y-96158673D01*
X193703109Y-96106090D01*
X193855017Y-96041067D01*
X194035100Y-95964530D01*
X194241167Y-95877403D01*
X194471025Y-95780612D01*
X194722482Y-95675082D01*
X194993346Y-95561738D01*
X195281426Y-95441506D01*
X195584529Y-95315310D01*
X195900464Y-95184076D01*
X196156863Y-95077787D01*
X196481648Y-94943163D01*
X196795528Y-94812854D01*
X197096297Y-94687785D01*
X197381745Y-94568884D01*
X197649664Y-94457078D01*
X197897845Y-94353293D01*
X198124079Y-94258457D01*
X198326160Y-94173495D01*
X198501877Y-94099335D01*
X198649022Y-94036904D01*
X198765387Y-93987128D01*
X198848763Y-93950934D01*
X198896942Y-93929249D01*
X198908667Y-93923003D01*
X198889801Y-93912480D01*
X198834722Y-93885395D01*
X198745709Y-93842809D01*
X198625040Y-93785782D01*
X198474994Y-93715374D01*
X198297849Y-93632645D01*
X198095884Y-93538656D01*
X197871377Y-93434466D01*
X197626608Y-93321136D01*
X197363854Y-93199726D01*
X197085394Y-93071295D01*
X196793507Y-92936905D01*
X196490472Y-92797615D01*
X196447621Y-92777938D01*
X193986576Y-91647917D01*
X197834038Y-91642568D01*
X201681500Y-91637220D01*
X201681500Y-90303948D01*
X197837411Y-90298599D01*
X193993321Y-90293250D01*
X196460460Y-89150897D01*
X196764885Y-89009886D01*
X197058436Y-88873808D01*
X197338850Y-88743716D01*
X197603862Y-88620666D01*
X197851209Y-88505713D01*
X198078627Y-88399910D01*
X198283852Y-88304313D01*
X198464620Y-88219976D01*
X198618666Y-88147955D01*
X198743728Y-88089303D01*
X198837541Y-88045075D01*
X198897841Y-88016327D01*
X198922364Y-88004113D01*
X198922812Y-88003757D01*
X198903050Y-87995241D01*
X198846389Y-87971456D01*
X198755048Y-87933322D01*
X198631242Y-87881760D01*
X198477190Y-87817690D01*
X198295108Y-87742032D01*
X198087214Y-87655707D01*
X197855724Y-87559635D01*
X197602857Y-87454738D01*
X197330828Y-87341934D01*
X197041855Y-87222145D01*
X196738155Y-87096291D01*
X196421945Y-86965293D01*
X196177555Y-86864073D01*
X195853130Y-86729653D01*
X195539398Y-86599529D01*
X195238590Y-86474633D01*
X194952937Y-86355898D01*
X194684669Y-86244255D01*
X194436019Y-86140637D01*
X194209217Y-86045974D01*
X194006495Y-85961199D01*
X193830082Y-85887243D01*
X193682211Y-85825039D01*
X193565113Y-85775518D01*
X193481018Y-85739612D01*
X193432158Y-85718252D01*
X193419991Y-85712354D01*
X193416635Y-85710057D01*
X193413307Y-85708094D01*
X193411827Y-85705696D01*
X193414013Y-85702092D01*
X193421683Y-85696513D01*
X193436657Y-85688191D01*
X193460753Y-85676355D01*
X193495790Y-85660235D01*
X193543586Y-85639063D01*
X193605961Y-85612068D01*
X193684733Y-85578482D01*
X193781721Y-85537534D01*
X193898743Y-85488455D01*
X194037619Y-85430476D01*
X194200166Y-85362828D01*
X194388205Y-85284739D01*
X194603552Y-85195442D01*
X194848028Y-85094167D01*
X195123451Y-84980143D01*
X195431640Y-84852602D01*
X195774413Y-84710774D01*
X196153589Y-84553890D01*
X196352576Y-84471556D01*
X196665401Y-84342029D01*
X196967242Y-84216882D01*
X197255805Y-84097073D01*
X197528799Y-83983560D01*
X197783932Y-83877303D01*
X198018912Y-83779260D01*
X198231446Y-83690391D01*
X198419242Y-83611653D01*
X198580008Y-83544005D01*
X198711451Y-83488407D01*
X198811281Y-83445817D01*
X198877203Y-83417195D01*
X198906927Y-83403497D01*
X198908451Y-83402469D01*
X198889545Y-83392590D01*
X198834036Y-83365940D01*
X198743803Y-83323388D01*
X198620725Y-83265802D01*
X198466682Y-83194052D01*
X198283554Y-83109007D01*
X198073219Y-83011535D01*
X197837558Y-82902506D01*
X197578450Y-82782788D01*
X197297774Y-82653251D01*
X196997410Y-82514764D01*
X196679237Y-82368195D01*
X196345135Y-82214413D01*
X195996982Y-82054288D01*
X195636660Y-81888688D01*
X195294459Y-81731527D01*
X194918655Y-81558984D01*
X194549863Y-81389648D01*
X194190215Y-81224499D01*
X193841845Y-81064516D01*
X193506886Y-80910679D01*
X193187469Y-80763969D01*
X192885728Y-80625364D01*
X192603796Y-80495845D01*
X192343805Y-80376392D01*
X192107889Y-80267985D01*
X191898179Y-80171602D01*
X191716810Y-80088225D01*
X191565913Y-80018833D01*
X191447621Y-79964405D01*
X191364067Y-79925922D01*
X191325432Y-79908090D01*
X190970614Y-79743981D01*
X190981750Y-81186067D01*
X193483645Y-82279609D01*
X193792004Y-82414432D01*
X194089582Y-82544627D01*
X194374083Y-82669183D01*
X194643206Y-82787092D01*
X194894654Y-82897344D01*
X195126129Y-82998927D01*
X195335331Y-83090834D01*
X195519963Y-83172053D01*
X195677726Y-83241575D01*
X195806322Y-83298391D01*
X195903451Y-83341489D01*
X195966816Y-83369861D01*
X195994119Y-83382496D01*
X195995039Y-83383034D01*
X195977041Y-83392161D01*
X195922198Y-83416408D01*
X195832822Y-83454812D01*
X195711226Y-83506405D01*
X195559722Y-83570223D01*
X195380623Y-83645299D01*
X195176240Y-83730667D01*
X194948887Y-83825363D01*
X194700875Y-83928420D01*
X194434518Y-84038873D01*
X194152127Y-84155756D01*
X193856015Y-84278103D01*
X193548495Y-84404948D01*
X193514311Y-84419035D01*
X193198733Y-84549074D01*
X192889768Y-84676393D01*
X192590144Y-84799867D01*
X192302590Y-84918372D01*
X192029834Y-85030784D01*
X191774605Y-85135977D01*
X191539630Y-85232827D01*
X191327639Y-85320209D01*
X191141359Y-85397000D01*
X190983520Y-85462074D01*
X190856849Y-85514307D01*
X190764075Y-85552574D01*
X190710925Y-85574511D01*
X190397767Y-85703869D01*
X193192717Y-86864256D01*
X193520008Y-87000224D01*
X193836418Y-87131840D01*
X194139756Y-87258183D01*
X194427833Y-87378335D01*
X194698459Y-87491378D01*
X194949443Y-87596392D01*
X195178596Y-87692457D01*
X195383728Y-87778656D01*
X195562648Y-87854070D01*
X195713168Y-87917778D01*
X195833095Y-87968862D01*
X195920242Y-88006404D01*
X195972418Y-88029484D01*
X195987667Y-88037118D01*
X195968761Y-88046453D01*
X195913894Y-88071629D01*
X195825847Y-88111418D01*
X195707396Y-88164589D01*
X195561320Y-88229912D01*
X195390399Y-88306159D01*
X195197410Y-88392100D01*
X194985132Y-88486504D01*
X194756344Y-88588142D01*
X194513823Y-88695785D01*
X194260349Y-88808203D01*
X193998700Y-88924165D01*
X193731655Y-89042444D01*
X193461991Y-89161808D01*
X193192488Y-89281028D01*
X192925924Y-89398874D01*
X192665078Y-89514118D01*
X192412727Y-89625528D01*
X192171651Y-89731876D01*
X191944629Y-89831932D01*
X191734437Y-89924466D01*
X191543856Y-90008248D01*
X191375663Y-90082049D01*
X191232637Y-90144640D01*
X191117557Y-90194789D01*
X191033201Y-90231269D01*
X190982348Y-90252848D01*
X190969522Y-90257972D01*
X190965721Y-90238608D01*
X190962256Y-90179139D01*
X190959158Y-90081793D01*
X190956458Y-89948797D01*
X190954187Y-89782378D01*
X190952374Y-89584763D01*
X190951052Y-89358181D01*
X190950251Y-89104858D01*
X190950000Y-88845097D01*
X190950000Y-87425167D01*
X189722334Y-87425167D01*
X189722334Y-94558334D01*
X190950000Y-94558334D01*
X190950000Y-94558334D01*
G37*
X190950000Y-94558334D02*
X190950000Y-93129584D01*
X190950188Y-92887905D01*
X190950732Y-92659084D01*
X190951599Y-92446568D01*
X190952758Y-92253807D01*
X190954178Y-92084250D01*
X190955828Y-91941347D01*
X190957675Y-91828546D01*
X190959688Y-91749297D01*
X190961836Y-91707049D01*
X190963054Y-91700834D01*
X190984160Y-91709139D01*
X191041232Y-91733241D01*
X191131476Y-91771917D01*
X191252096Y-91823944D01*
X191400298Y-91888101D01*
X191573285Y-91963165D01*
X191768262Y-92047914D01*
X191982436Y-92141126D01*
X192213009Y-92241578D01*
X192457187Y-92348049D01*
X192712175Y-92459315D01*
X192975178Y-92574155D01*
X193243400Y-92691346D01*
X193514046Y-92809666D01*
X193784322Y-92927893D01*
X194051430Y-93044805D01*
X194312578Y-93159179D01*
X194564969Y-93269793D01*
X194805808Y-93375424D01*
X195032300Y-93474852D01*
X195241649Y-93566852D01*
X195431062Y-93650204D01*
X195597741Y-93723684D01*
X195738893Y-93786071D01*
X195851721Y-93836141D01*
X195933431Y-93872674D01*
X195981228Y-93894447D01*
X195993122Y-93900338D01*
X195975810Y-93909990D01*
X195921516Y-93934808D01*
X195832417Y-93973877D01*
X195710691Y-94026281D01*
X195558516Y-94091106D01*
X195378071Y-94167437D01*
X195171532Y-94254360D01*
X194941078Y-94350958D01*
X194688886Y-94456319D01*
X194417135Y-94569525D01*
X194128002Y-94689664D01*
X193823665Y-94815820D01*
X193506302Y-94947078D01*
X193215571Y-95067071D01*
X192888467Y-95202083D01*
X192572447Y-95332788D01*
X192269689Y-95458273D01*
X191982373Y-95577623D01*
X191712676Y-95689925D01*
X191462777Y-95794265D01*
X191234855Y-95889729D01*
X191031087Y-95975402D01*
X190853654Y-96050372D01*
X190704733Y-96113724D01*
X190586502Y-96164544D01*
X190501140Y-96201918D01*
X190450826Y-96224933D01*
X190437283Y-96232595D01*
X190458297Y-96242161D01*
X190516214Y-96266991D01*
X190608821Y-96306161D01*
X190733904Y-96358748D01*
X190889251Y-96423830D01*
X191072647Y-96500483D01*
X191281879Y-96587784D01*
X191514735Y-96684811D01*
X191768999Y-96790640D01*
X192042460Y-96904349D01*
X192332903Y-97025014D01*
X192638116Y-97151713D01*
X192955884Y-97283523D01*
X193230238Y-97397245D01*
X193556534Y-97532529D01*
X193871938Y-97663441D01*
X194174253Y-97789062D01*
X194461281Y-97908472D01*
X194730824Y-98020753D01*
X194980685Y-98124986D01*
X195208667Y-98220252D01*
X195412573Y-98305631D01*
X195590204Y-98380205D01*
X195739363Y-98443056D01*
X195857853Y-98493263D01*
X195943476Y-98529908D01*
X195994036Y-98552071D01*
X196007801Y-98558834D01*
X195988783Y-98568482D01*
X195933275Y-98594106D01*
X195843561Y-98634694D01*
X195721927Y-98689231D01*
X195570657Y-98756706D01*
X195392036Y-98836106D01*
X195188349Y-98926418D01*
X194961880Y-99026628D01*
X194714914Y-99135725D01*
X194449736Y-99252695D01*
X194168631Y-99376526D01*
X193873884Y-99506205D01*
X193567779Y-99640719D01*
X193505314Y-99668149D01*
X193196889Y-99803621D01*
X192899145Y-99934502D01*
X192614386Y-100059774D01*
X192344917Y-100178420D01*
X192093040Y-100289422D01*
X191861061Y-100391761D01*
X191651282Y-100484420D01*
X191466009Y-100566382D01*
X191307544Y-100636628D01*
X191178192Y-100694140D01*
X191080257Y-100737902D01*
X191016042Y-100766894D01*
X190987852Y-100780100D01*
X190986756Y-100780743D01*
X190983071Y-100804478D01*
X190980009Y-100865522D01*
X190977643Y-100958854D01*
X190976046Y-101079455D01*
X190975292Y-101222303D01*
X190975454Y-101382379D01*
X190976172Y-101504594D01*
X190981750Y-102214582D01*
X194082667Y-100778399D01*
X194441389Y-100612252D01*
X194799705Y-100446285D01*
X195154755Y-100281821D01*
X195503680Y-100120185D01*
X195843620Y-99962702D01*
X196171717Y-99810698D01*
X196485112Y-99665496D01*
X196780944Y-99528421D01*
X197056356Y-99400799D01*
X197308487Y-99283954D01*
X197534479Y-99179211D01*
X197731471Y-99087895D01*
X197896606Y-99011330D01*
X198027024Y-98950841D01*
X198058249Y-98936353D01*
X198267754Y-98838531D01*
X198451078Y-98751687D01*
X198606232Y-98676811D01*
X198731228Y-98614892D01*
X198824076Y-98566920D01*
X198882788Y-98533886D01*
X198905375Y-98516779D01*
X198904916Y-98514956D01*
X198882356Y-98505148D01*
X198822929Y-98480095D01*
X198728885Y-98440730D01*
X198602475Y-98387990D01*
X198445952Y-98322809D01*
X198261566Y-98246123D01*
X198051569Y-98158867D01*
X197818211Y-98061976D01*
X197563743Y-97956385D01*
X197290418Y-97843029D01*
X197000486Y-97722843D01*
X196696198Y-97596763D01*
X196379806Y-97465723D01*
X196157000Y-97373477D01*
X195833829Y-97239637D01*
X195521371Y-97110118D01*
X195221865Y-96985854D01*
X194937550Y-96867778D01*
X194670664Y-96756824D01*
X194423445Y-96653925D01*
X194198132Y-96560015D01*
X193996964Y-96476027D01*
X193822179Y-96402895D01*
X193676016Y-96341553D01*
X193560712Y-96292933D01*
X193478507Y-96257969D01*
X193431640Y-96237596D01*
X193421071Y-96232529D01*
X193438358Y-96222818D01*
X193492587Y-96197890D01*
X193581568Y-96158673D01*
X193703109Y-96106090D01*
X193855017Y-96041067D01*
X194035100Y-95964530D01*
X194241167Y-95877403D01*
X194471025Y-95780612D01*
X194722482Y-95675082D01*
X194993346Y-95561738D01*
X195281426Y-95441506D01*
X195584529Y-95315310D01*
X195900464Y-95184076D01*
X196156863Y-95077787D01*
X196481648Y-94943163D01*
X196795528Y-94812854D01*
X197096297Y-94687785D01*
X197381745Y-94568884D01*
X197649664Y-94457078D01*
X197897845Y-94353293D01*
X198124079Y-94258457D01*
X198326160Y-94173495D01*
X198501877Y-94099335D01*
X198649022Y-94036904D01*
X198765387Y-93987128D01*
X198848763Y-93950934D01*
X198896942Y-93929249D01*
X198908667Y-93923003D01*
X198889801Y-93912480D01*
X198834722Y-93885395D01*
X198745709Y-93842809D01*
X198625040Y-93785782D01*
X198474994Y-93715374D01*
X198297849Y-93632645D01*
X198095884Y-93538656D01*
X197871377Y-93434466D01*
X197626608Y-93321136D01*
X197363854Y-93199726D01*
X197085394Y-93071295D01*
X196793507Y-92936905D01*
X196490472Y-92797615D01*
X196447621Y-92777938D01*
X193986576Y-91647917D01*
X197834038Y-91642568D01*
X201681500Y-91637220D01*
X201681500Y-90303948D01*
X197837411Y-90298599D01*
X193993321Y-90293250D01*
X196460460Y-89150897D01*
X196764885Y-89009886D01*
X197058436Y-88873808D01*
X197338850Y-88743716D01*
X197603862Y-88620666D01*
X197851209Y-88505713D01*
X198078627Y-88399910D01*
X198283852Y-88304313D01*
X198464620Y-88219976D01*
X198618666Y-88147955D01*
X198743728Y-88089303D01*
X198837541Y-88045075D01*
X198897841Y-88016327D01*
X198922364Y-88004113D01*
X198922812Y-88003757D01*
X198903050Y-87995241D01*
X198846389Y-87971456D01*
X198755048Y-87933322D01*
X198631242Y-87881760D01*
X198477190Y-87817690D01*
X198295108Y-87742032D01*
X198087214Y-87655707D01*
X197855724Y-87559635D01*
X197602857Y-87454738D01*
X197330828Y-87341934D01*
X197041855Y-87222145D01*
X196738155Y-87096291D01*
X196421945Y-86965293D01*
X196177555Y-86864073D01*
X195853130Y-86729653D01*
X195539398Y-86599529D01*
X195238590Y-86474633D01*
X194952937Y-86355898D01*
X194684669Y-86244255D01*
X194436019Y-86140637D01*
X194209217Y-86045974D01*
X194006495Y-85961199D01*
X193830082Y-85887243D01*
X193682211Y-85825039D01*
X193565113Y-85775518D01*
X193481018Y-85739612D01*
X193432158Y-85718252D01*
X193419991Y-85712354D01*
X193416635Y-85710057D01*
X193413307Y-85708094D01*
X193411827Y-85705696D01*
X193414013Y-85702092D01*
X193421683Y-85696513D01*
X193436657Y-85688191D01*
X193460753Y-85676355D01*
X193495790Y-85660235D01*
X193543586Y-85639063D01*
X193605961Y-85612068D01*
X193684733Y-85578482D01*
X193781721Y-85537534D01*
X193898743Y-85488455D01*
X194037619Y-85430476D01*
X194200166Y-85362828D01*
X194388205Y-85284739D01*
X194603552Y-85195442D01*
X194848028Y-85094167D01*
X195123451Y-84980143D01*
X195431640Y-84852602D01*
X195774413Y-84710774D01*
X196153589Y-84553890D01*
X196352576Y-84471556D01*
X196665401Y-84342029D01*
X196967242Y-84216882D01*
X197255805Y-84097073D01*
X197528799Y-83983560D01*
X197783932Y-83877303D01*
X198018912Y-83779260D01*
X198231446Y-83690391D01*
X198419242Y-83611653D01*
X198580008Y-83544005D01*
X198711451Y-83488407D01*
X198811281Y-83445817D01*
X198877203Y-83417195D01*
X198906927Y-83403497D01*
X198908451Y-83402469D01*
X198889545Y-83392590D01*
X198834036Y-83365940D01*
X198743803Y-83323388D01*
X198620725Y-83265802D01*
X198466682Y-83194052D01*
X198283554Y-83109007D01*
X198073219Y-83011535D01*
X197837558Y-82902506D01*
X197578450Y-82782788D01*
X197297774Y-82653251D01*
X196997410Y-82514764D01*
X196679237Y-82368195D01*
X196345135Y-82214413D01*
X195996982Y-82054288D01*
X195636660Y-81888688D01*
X195294459Y-81731527D01*
X194918655Y-81558984D01*
X194549863Y-81389648D01*
X194190215Y-81224499D01*
X193841845Y-81064516D01*
X193506886Y-80910679D01*
X193187469Y-80763969D01*
X192885728Y-80625364D01*
X192603796Y-80495845D01*
X192343805Y-80376392D01*
X192107889Y-80267985D01*
X191898179Y-80171602D01*
X191716810Y-80088225D01*
X191565913Y-80018833D01*
X191447621Y-79964405D01*
X191364067Y-79925922D01*
X191325432Y-79908090D01*
X190970614Y-79743981D01*
X190981750Y-81186067D01*
X193483645Y-82279609D01*
X193792004Y-82414432D01*
X194089582Y-82544627D01*
X194374083Y-82669183D01*
X194643206Y-82787092D01*
X194894654Y-82897344D01*
X195126129Y-82998927D01*
X195335331Y-83090834D01*
X195519963Y-83172053D01*
X195677726Y-83241575D01*
X195806322Y-83298391D01*
X195903451Y-83341489D01*
X195966816Y-83369861D01*
X195994119Y-83382496D01*
X195995039Y-83383034D01*
X195977041Y-83392161D01*
X195922198Y-83416408D01*
X195832822Y-83454812D01*
X195711226Y-83506405D01*
X195559722Y-83570223D01*
X195380623Y-83645299D01*
X195176240Y-83730667D01*
X194948887Y-83825363D01*
X194700875Y-83928420D01*
X194434518Y-84038873D01*
X194152127Y-84155756D01*
X193856015Y-84278103D01*
X193548495Y-84404948D01*
X193514311Y-84419035D01*
X193198733Y-84549074D01*
X192889768Y-84676393D01*
X192590144Y-84799867D01*
X192302590Y-84918372D01*
X192029834Y-85030784D01*
X191774605Y-85135977D01*
X191539630Y-85232827D01*
X191327639Y-85320209D01*
X191141359Y-85397000D01*
X190983520Y-85462074D01*
X190856849Y-85514307D01*
X190764075Y-85552574D01*
X190710925Y-85574511D01*
X190397767Y-85703869D01*
X193192717Y-86864256D01*
X193520008Y-87000224D01*
X193836418Y-87131840D01*
X194139756Y-87258183D01*
X194427833Y-87378335D01*
X194698459Y-87491378D01*
X194949443Y-87596392D01*
X195178596Y-87692457D01*
X195383728Y-87778656D01*
X195562648Y-87854070D01*
X195713168Y-87917778D01*
X195833095Y-87968862D01*
X195920242Y-88006404D01*
X195972418Y-88029484D01*
X195987667Y-88037118D01*
X195968761Y-88046453D01*
X195913894Y-88071629D01*
X195825847Y-88111418D01*
X195707396Y-88164589D01*
X195561320Y-88229912D01*
X195390399Y-88306159D01*
X195197410Y-88392100D01*
X194985132Y-88486504D01*
X194756344Y-88588142D01*
X194513823Y-88695785D01*
X194260349Y-88808203D01*
X193998700Y-88924165D01*
X193731655Y-89042444D01*
X193461991Y-89161808D01*
X193192488Y-89281028D01*
X192925924Y-89398874D01*
X192665078Y-89514118D01*
X192412727Y-89625528D01*
X192171651Y-89731876D01*
X191944629Y-89831932D01*
X191734437Y-89924466D01*
X191543856Y-90008248D01*
X191375663Y-90082049D01*
X191232637Y-90144640D01*
X191117557Y-90194789D01*
X191033201Y-90231269D01*
X190982348Y-90252848D01*
X190969522Y-90257972D01*
X190965721Y-90238608D01*
X190962256Y-90179139D01*
X190959158Y-90081793D01*
X190956458Y-89948797D01*
X190954187Y-89782378D01*
X190952374Y-89584763D01*
X190951052Y-89358181D01*
X190950251Y-89104858D01*
X190950000Y-88845097D01*
X190950000Y-87425167D01*
X189722334Y-87425167D01*
X189722334Y-94558334D01*
X190950000Y-94558334D01*
G36*
X205438036Y-88356500D02*
G01*
X204835334Y-88960280D01*
X204835334Y-89319102D01*
X205183653Y-88971262D01*
X205294988Y-88860456D01*
X205380564Y-88776596D01*
X205444323Y-88716465D01*
X205490205Y-88676841D01*
X205522151Y-88654504D01*
X205544102Y-88646235D01*
X205559998Y-88648813D01*
X205569945Y-88655610D01*
X205602885Y-88684077D01*
X205661626Y-88735380D01*
X205740543Y-88804566D01*
X205834013Y-88886678D01*
X205936410Y-88976762D01*
X206042110Y-89069863D01*
X206145488Y-89161026D01*
X206240920Y-89245297D01*
X206322781Y-89317719D01*
X206385447Y-89373340D01*
X206423292Y-89407203D01*
X206428125Y-89411605D01*
X206486334Y-89465087D01*
X206486334Y-89099288D01*
X206107540Y-88764936D01*
X205973625Y-88646577D01*
X205871303Y-88553609D01*
X205800818Y-88482967D01*
X205762419Y-88431590D01*
X205756350Y-88396414D01*
X205782858Y-88374377D01*
X205842188Y-88362416D01*
X205934588Y-88357469D01*
X206060303Y-88356473D01*
X206140364Y-88356500D01*
X206486334Y-88356500D01*
X206486334Y-88081334D01*
X203586500Y-88081334D01*
X203586500Y-88356500D01*
X205438036Y-88356500D01*
X205438036Y-88356500D01*
G37*
X205438036Y-88356500D02*
X204835334Y-88960280D01*
X204835334Y-89319102D01*
X205183653Y-88971262D01*
X205294988Y-88860456D01*
X205380564Y-88776596D01*
X205444323Y-88716465D01*
X205490205Y-88676841D01*
X205522151Y-88654504D01*
X205544102Y-88646235D01*
X205559998Y-88648813D01*
X205569945Y-88655610D01*
X205602885Y-88684077D01*
X205661626Y-88735380D01*
X205740543Y-88804566D01*
X205834013Y-88886678D01*
X205936410Y-88976762D01*
X206042110Y-89069863D01*
X206145488Y-89161026D01*
X206240920Y-89245297D01*
X206322781Y-89317719D01*
X206385447Y-89373340D01*
X206423292Y-89407203D01*
X206428125Y-89411605D01*
X206486334Y-89465087D01*
X206486334Y-89099288D01*
X206107540Y-88764936D01*
X205973625Y-88646577D01*
X205871303Y-88553609D01*
X205800818Y-88482967D01*
X205762419Y-88431590D01*
X205756350Y-88396414D01*
X205782858Y-88374377D01*
X205842188Y-88362416D01*
X205934588Y-88357469D01*
X206060303Y-88356473D01*
X206140364Y-88356500D01*
X206486334Y-88356500D01*
X206486334Y-88081334D01*
X203586500Y-88081334D01*
X203586500Y-88356500D01*
X205438036Y-88356500D01*
G36*
X204835334Y-83509334D02*
G01*
X204835334Y-83805667D01*
X205089334Y-83805667D01*
X205089334Y-83509334D01*
X206486334Y-83509334D01*
X206486334Y-83234167D01*
X205089334Y-83234167D01*
X205089334Y-83064834D01*
X204835334Y-83064834D01*
X204835334Y-83234167D01*
X204242667Y-83234167D01*
X204242667Y-83509334D01*
X204835334Y-83509334D01*
X204835334Y-83509334D01*
G37*
X204835334Y-83509334D02*
X204835334Y-83805667D01*
X205089334Y-83805667D01*
X205089334Y-83509334D01*
X206486334Y-83509334D01*
X206486334Y-83234167D01*
X205089334Y-83234167D01*
X205089334Y-83064834D01*
X204835334Y-83064834D01*
X204835334Y-83234167D01*
X204242667Y-83234167D01*
X204242667Y-83509334D01*
X204835334Y-83509334D01*
G36*
X204835334Y-79530000D02*
G01*
X204835334Y-79826334D01*
X205089334Y-79826334D01*
X205089334Y-79530000D01*
X206486334Y-79530000D01*
X206486334Y-79254834D01*
X205089334Y-79254834D01*
X205089334Y-79085500D01*
X204835334Y-79085500D01*
X204835334Y-79254834D01*
X204242667Y-79254834D01*
X204242667Y-79530000D01*
X204835334Y-79530000D01*
X204835334Y-79530000D01*
G37*
X204835334Y-79530000D02*
X204835334Y-79826334D01*
X205089334Y-79826334D01*
X205089334Y-79530000D01*
X206486334Y-79530000D01*
X206486334Y-79254834D01*
X205089334Y-79254834D01*
X205089334Y-79085500D01*
X204835334Y-79085500D01*
X204835334Y-79254834D01*
X204242667Y-79254834D01*
X204242667Y-79530000D01*
X204835334Y-79530000D01*
G36*
X204826998Y-111558191D02*
G01*
X204896232Y-111676020D01*
X205000982Y-111776914D01*
X205062582Y-111817347D01*
X205088269Y-111808842D01*
X205123380Y-111759155D01*
X205144218Y-111719363D01*
X205199691Y-111606257D01*
X205123345Y-111529912D01*
X205074225Y-111473367D01*
X205051690Y-111422260D01*
X205047000Y-111369874D01*
X205064156Y-111277860D01*
X205112724Y-111212336D01*
X205188350Y-111177144D01*
X205269250Y-111173795D01*
X205302264Y-111181076D01*
X205331743Y-111199043D01*
X205361836Y-111233418D01*
X205396693Y-111289924D01*
X205440461Y-111374284D01*
X205492006Y-111481084D01*
X205564216Y-111624874D01*
X205629029Y-111733441D01*
X205691137Y-111812130D01*
X205755230Y-111866289D01*
X205825997Y-111901264D01*
X205872641Y-111915034D01*
X206016647Y-111929087D01*
X206155052Y-111903819D01*
X206281569Y-111842238D01*
X206389910Y-111747351D01*
X206470193Y-111629250D01*
X206507962Y-111518990D01*
X206522908Y-111389069D01*
X206514354Y-111255904D01*
X206489636Y-111156657D01*
X206428403Y-111038591D01*
X206337416Y-110930449D01*
X206229055Y-110846283D01*
X206203824Y-110832230D01*
X206153075Y-110808096D01*
X206121019Y-110796724D01*
X206116321Y-110796982D01*
X206105415Y-110818545D01*
X206083372Y-110867500D01*
X206061266Y-110918555D01*
X206034697Y-110983002D01*
X206024453Y-111019799D01*
X206029810Y-111040045D01*
X206050048Y-111054840D01*
X206052321Y-111056138D01*
X206091043Y-111083381D01*
X206144885Y-111127284D01*
X206175019Y-111153789D01*
X206228814Y-111209930D01*
X206256858Y-111264363D01*
X206268889Y-111328063D01*
X206266241Y-111444104D01*
X206231485Y-111536233D01*
X206167302Y-111601082D01*
X206076377Y-111635280D01*
X206020699Y-111639834D01*
X205958255Y-111634114D01*
X205905023Y-111613579D01*
X205856256Y-111573163D01*
X205807213Y-111507802D01*
X205753147Y-111412430D01*
X205693150Y-111290134D01*
X205628380Y-111161917D01*
X205570353Y-111065629D01*
X205521538Y-111005298D01*
X205515223Y-110999649D01*
X205408167Y-110934994D01*
X205290403Y-110906566D01*
X205169773Y-110912540D01*
X205054119Y-110951091D01*
X204951284Y-111020392D01*
X204869109Y-111118618D01*
X204849025Y-111154719D01*
X204801730Y-111292379D01*
X204794943Y-111428590D01*
X204826998Y-111558191D01*
X204826998Y-111558191D01*
G37*
X204826998Y-111558191D02*
X204896232Y-111676020D01*
X205000982Y-111776914D01*
X205062582Y-111817347D01*
X205088269Y-111808842D01*
X205123380Y-111759155D01*
X205144218Y-111719363D01*
X205199691Y-111606257D01*
X205123345Y-111529912D01*
X205074225Y-111473367D01*
X205051690Y-111422260D01*
X205047000Y-111369874D01*
X205064156Y-111277860D01*
X205112724Y-111212336D01*
X205188350Y-111177144D01*
X205269250Y-111173795D01*
X205302264Y-111181076D01*
X205331743Y-111199043D01*
X205361836Y-111233418D01*
X205396693Y-111289924D01*
X205440461Y-111374284D01*
X205492006Y-111481084D01*
X205564216Y-111624874D01*
X205629029Y-111733441D01*
X205691137Y-111812130D01*
X205755230Y-111866289D01*
X205825997Y-111901264D01*
X205872641Y-111915034D01*
X206016647Y-111929087D01*
X206155052Y-111903819D01*
X206281569Y-111842238D01*
X206389910Y-111747351D01*
X206470193Y-111629250D01*
X206507962Y-111518990D01*
X206522908Y-111389069D01*
X206514354Y-111255904D01*
X206489636Y-111156657D01*
X206428403Y-111038591D01*
X206337416Y-110930449D01*
X206229055Y-110846283D01*
X206203824Y-110832230D01*
X206153075Y-110808096D01*
X206121019Y-110796724D01*
X206116321Y-110796982D01*
X206105415Y-110818545D01*
X206083372Y-110867500D01*
X206061266Y-110918555D01*
X206034697Y-110983002D01*
X206024453Y-111019799D01*
X206029810Y-111040045D01*
X206050048Y-111054840D01*
X206052321Y-111056138D01*
X206091043Y-111083381D01*
X206144885Y-111127284D01*
X206175019Y-111153789D01*
X206228814Y-111209930D01*
X206256858Y-111264363D01*
X206268889Y-111328063D01*
X206266241Y-111444104D01*
X206231485Y-111536233D01*
X206167302Y-111601082D01*
X206076377Y-111635280D01*
X206020699Y-111639834D01*
X205958255Y-111634114D01*
X205905023Y-111613579D01*
X205856256Y-111573163D01*
X205807213Y-111507802D01*
X205753147Y-111412430D01*
X205693150Y-111290134D01*
X205628380Y-111161917D01*
X205570353Y-111065629D01*
X205521538Y-111005298D01*
X205515223Y-110999649D01*
X205408167Y-110934994D01*
X205290403Y-110906566D01*
X205169773Y-110912540D01*
X205054119Y-110951091D01*
X204951284Y-111020392D01*
X204869109Y-111118618D01*
X204849025Y-111154719D01*
X204801730Y-111292379D01*
X204794943Y-111428590D01*
X204826998Y-111558191D01*
G36*
X204807848Y-108914937D02*
G01*
X204822497Y-108978799D01*
X204887158Y-109127785D01*
X204986717Y-109257126D01*
X205117198Y-109363943D01*
X205274627Y-109445356D01*
X205455029Y-109498488D01*
X205562160Y-109514566D01*
X205702547Y-109528949D01*
X205708148Y-108875183D01*
X205713750Y-108221417D01*
X205798417Y-108227877D01*
X205929799Y-108258014D01*
X206048275Y-108323245D01*
X206147804Y-108416892D01*
X206222349Y-108532275D01*
X206265870Y-108662717D01*
X206274667Y-108754560D01*
X206259443Y-108883245D01*
X206211632Y-109000786D01*
X206128025Y-109112925D01*
X206016747Y-109216250D01*
X205938937Y-109279750D01*
X206003008Y-109390868D01*
X206067078Y-109501985D01*
X206131252Y-109464951D01*
X206240324Y-109383805D01*
X206342742Y-109274604D01*
X206426153Y-109151237D01*
X206447758Y-109109027D01*
X206499082Y-108956980D01*
X206522885Y-108788039D01*
X206517851Y-108618553D01*
X206496138Y-108507167D01*
X206429863Y-108344213D01*
X206330351Y-108205074D01*
X206200984Y-108092321D01*
X206045141Y-108008525D01*
X205866203Y-107956253D01*
X205751898Y-107941297D01*
X205556278Y-107943745D01*
X205491500Y-107956344D01*
X205491500Y-108226709D01*
X205491500Y-108714938D01*
X205490766Y-108854395D01*
X205488707Y-108979272D01*
X205485538Y-109083492D01*
X205481475Y-109160977D01*
X205476732Y-109205650D01*
X205473826Y-109214092D01*
X205435305Y-109216810D01*
X205375088Y-109199141D01*
X205305296Y-109166166D01*
X205238045Y-109122970D01*
X205217666Y-109106647D01*
X205125001Y-109001287D01*
X205067509Y-108878419D01*
X205046358Y-108745752D01*
X205062715Y-108610995D01*
X205117749Y-108481855D01*
X205121944Y-108475032D01*
X205195816Y-108381378D01*
X205285804Y-108304172D01*
X205379765Y-108252894D01*
X205422709Y-108240273D01*
X205491500Y-108226709D01*
X205491500Y-107956344D01*
X205371825Y-107979621D01*
X205203819Y-108046271D01*
X205057540Y-108141042D01*
X204938267Y-108261282D01*
X204857575Y-108390750D01*
X204820455Y-108501686D01*
X204799169Y-108636517D01*
X204794653Y-108779511D01*
X204807848Y-108914937D01*
X204807848Y-108914937D01*
G37*
X204807848Y-108914937D02*
X204822497Y-108978799D01*
X204887158Y-109127785D01*
X204986717Y-109257126D01*
X205117198Y-109363943D01*
X205274627Y-109445356D01*
X205455029Y-109498488D01*
X205562160Y-109514566D01*
X205702547Y-109528949D01*
X205708148Y-108875183D01*
X205713750Y-108221417D01*
X205798417Y-108227877D01*
X205929799Y-108258014D01*
X206048275Y-108323245D01*
X206147804Y-108416892D01*
X206222349Y-108532275D01*
X206265870Y-108662717D01*
X206274667Y-108754560D01*
X206259443Y-108883245D01*
X206211632Y-109000786D01*
X206128025Y-109112925D01*
X206016747Y-109216250D01*
X205938937Y-109279750D01*
X206003008Y-109390868D01*
X206067078Y-109501985D01*
X206131252Y-109464951D01*
X206240324Y-109383805D01*
X206342742Y-109274604D01*
X206426153Y-109151237D01*
X206447758Y-109109027D01*
X206499082Y-108956980D01*
X206522885Y-108788039D01*
X206517851Y-108618553D01*
X206496138Y-108507167D01*
X206429863Y-108344213D01*
X206330351Y-108205074D01*
X206200984Y-108092321D01*
X206045141Y-108008525D01*
X205866203Y-107956253D01*
X205751898Y-107941297D01*
X205556278Y-107943745D01*
X205491500Y-107956344D01*
X205491500Y-108226709D01*
X205491500Y-108714938D01*
X205490766Y-108854395D01*
X205488707Y-108979272D01*
X205485538Y-109083492D01*
X205481475Y-109160977D01*
X205476732Y-109205650D01*
X205473826Y-109214092D01*
X205435305Y-109216810D01*
X205375088Y-109199141D01*
X205305296Y-109166166D01*
X205238045Y-109122970D01*
X205217666Y-109106647D01*
X205125001Y-109001287D01*
X205067509Y-108878419D01*
X205046358Y-108745752D01*
X205062715Y-108610995D01*
X205117749Y-108481855D01*
X205121944Y-108475032D01*
X205195816Y-108381378D01*
X205285804Y-108304172D01*
X205379765Y-108252894D01*
X205422709Y-108240273D01*
X205491500Y-108226709D01*
X205491500Y-107956344D01*
X205371825Y-107979621D01*
X205203819Y-108046271D01*
X205057540Y-108141042D01*
X204938267Y-108261282D01*
X204857575Y-108390750D01*
X204820455Y-108501686D01*
X204799169Y-108636517D01*
X204794653Y-108779511D01*
X204807848Y-108914937D01*
G36*
X204809764Y-103181025D02*
G01*
X204840745Y-103296522D01*
X204852519Y-103323692D01*
X204895103Y-103394544D01*
X204953012Y-103470505D01*
X204986536Y-103507392D01*
X205074762Y-103596500D01*
X204835334Y-103596500D01*
X204835334Y-103871667D01*
X206486334Y-103871667D01*
X206486334Y-103596500D01*
X206244686Y-103596500D01*
X206332747Y-103506542D01*
X206391918Y-103435714D01*
X206444977Y-103355037D01*
X206465919Y-103314292D01*
X206499458Y-103205387D01*
X206518010Y-103075277D01*
X206520261Y-102942704D01*
X206504901Y-102826410D01*
X206501085Y-102811838D01*
X206434015Y-102649870D01*
X206332732Y-102510188D01*
X206200570Y-102395521D01*
X206040861Y-102308598D01*
X205856939Y-102252150D01*
X205806441Y-102242941D01*
X205622572Y-102231735D01*
X205612790Y-102232986D01*
X205612790Y-102519412D01*
X205703167Y-102521788D01*
X205864711Y-102548768D01*
X206004163Y-102606520D01*
X206118235Y-102690884D01*
X206203640Y-102797700D01*
X206257092Y-102922809D01*
X206275305Y-103062048D01*
X206254992Y-103211258D01*
X206253161Y-103217990D01*
X206196478Y-103345895D01*
X206104461Y-103451804D01*
X205978831Y-103534194D01*
X205835795Y-103587705D01*
X205672852Y-103612926D01*
X205514135Y-103600918D01*
X205366601Y-103553597D01*
X205237205Y-103472883D01*
X205165706Y-103402938D01*
X205090329Y-103284501D01*
X205050683Y-103153183D01*
X205045733Y-103016967D01*
X205074444Y-102883836D01*
X205135782Y-102761772D01*
X205228711Y-102658760D01*
X205265834Y-102630513D01*
X205374594Y-102567749D01*
X205485626Y-102531864D01*
X205612790Y-102519412D01*
X205612790Y-102232986D01*
X205444002Y-102254584D01*
X205276343Y-102308388D01*
X205125209Y-102390046D01*
X204996213Y-102496459D01*
X204894968Y-102624524D01*
X204827087Y-102771143D01*
X204822415Y-102786483D01*
X204799701Y-102909987D01*
X204795784Y-103046840D01*
X204809764Y-103181025D01*
X204809764Y-103181025D01*
G37*
X204809764Y-103181025D02*
X204840745Y-103296522D01*
X204852519Y-103323692D01*
X204895103Y-103394544D01*
X204953012Y-103470505D01*
X204986536Y-103507392D01*
X205074762Y-103596500D01*
X204835334Y-103596500D01*
X204835334Y-103871667D01*
X206486334Y-103871667D01*
X206486334Y-103596500D01*
X206244686Y-103596500D01*
X206332747Y-103506542D01*
X206391918Y-103435714D01*
X206444977Y-103355037D01*
X206465919Y-103314292D01*
X206499458Y-103205387D01*
X206518010Y-103075277D01*
X206520261Y-102942704D01*
X206504901Y-102826410D01*
X206501085Y-102811838D01*
X206434015Y-102649870D01*
X206332732Y-102510188D01*
X206200570Y-102395521D01*
X206040861Y-102308598D01*
X205856939Y-102252150D01*
X205806441Y-102242941D01*
X205622572Y-102231735D01*
X205612790Y-102232986D01*
X205612790Y-102519412D01*
X205703167Y-102521788D01*
X205864711Y-102548768D01*
X206004163Y-102606520D01*
X206118235Y-102690884D01*
X206203640Y-102797700D01*
X206257092Y-102922809D01*
X206275305Y-103062048D01*
X206254992Y-103211258D01*
X206253161Y-103217990D01*
X206196478Y-103345895D01*
X206104461Y-103451804D01*
X205978831Y-103534194D01*
X205835795Y-103587705D01*
X205672852Y-103612926D01*
X205514135Y-103600918D01*
X205366601Y-103553597D01*
X205237205Y-103472883D01*
X205165706Y-103402938D01*
X205090329Y-103284501D01*
X205050683Y-103153183D01*
X205045733Y-103016967D01*
X205074444Y-102883836D01*
X205135782Y-102761772D01*
X205228711Y-102658760D01*
X205265834Y-102630513D01*
X205374594Y-102567749D01*
X205485626Y-102531864D01*
X205612790Y-102519412D01*
X205612790Y-102232986D01*
X205444002Y-102254584D01*
X205276343Y-102308388D01*
X205125209Y-102390046D01*
X204996213Y-102496459D01*
X204894968Y-102624524D01*
X204827087Y-102771143D01*
X204822415Y-102786483D01*
X204799701Y-102909987D01*
X204795784Y-103046840D01*
X204809764Y-103181025D01*
G36*
X204804371Y-94378210D02*
G01*
X204808250Y-94453438D01*
X204817496Y-94511086D01*
X204834382Y-94563527D01*
X204861184Y-94623132D01*
X204872029Y-94645339D01*
X204961878Y-94787030D01*
X205081569Y-94915999D01*
X205219216Y-95020549D01*
X205295653Y-95062187D01*
X205353462Y-95087428D01*
X205405701Y-95103940D01*
X205463978Y-95113536D01*
X205539905Y-95118032D01*
X205645089Y-95119240D01*
X205660834Y-95119250D01*
X205770859Y-95118288D01*
X205850027Y-95114236D01*
X205909791Y-95105343D01*
X205961608Y-95089860D01*
X206016930Y-95066036D01*
X206020667Y-95064277D01*
X206181391Y-94965438D01*
X206317718Y-94834051D01*
X206424370Y-94675340D01*
X206435296Y-94653954D01*
X206476465Y-94564428D01*
X206500960Y-94489705D01*
X206513858Y-94409791D01*
X206519521Y-94322238D01*
X206520622Y-94227757D01*
X206516623Y-94138693D01*
X206508375Y-94071898D01*
X206506471Y-94063409D01*
X206446783Y-93905892D01*
X206352439Y-93756435D01*
X206231102Y-93624228D01*
X206090435Y-93518458D01*
X206020667Y-93480890D01*
X205964825Y-93456525D01*
X205913187Y-93440590D01*
X205854319Y-93431341D01*
X205776790Y-93427032D01*
X205669165Y-93425920D01*
X205664225Y-93425919D01*
X205664225Y-93686267D01*
X205826335Y-93705023D01*
X205968819Y-93758291D01*
X206088155Y-93841568D01*
X206180821Y-93950353D01*
X206243294Y-94080144D01*
X206272053Y-94226440D01*
X206263574Y-94384739D01*
X206252260Y-94437835D01*
X206198691Y-94567312D01*
X206111511Y-94678614D01*
X205997263Y-94766979D01*
X205862490Y-94827644D01*
X205713733Y-94855844D01*
X205676204Y-94857256D01*
X205504594Y-94841094D01*
X205355962Y-94790394D01*
X205231848Y-94706039D01*
X205133794Y-94588913D01*
X205098945Y-94526492D01*
X205069399Y-94460140D01*
X205053358Y-94402208D01*
X205047891Y-94335828D01*
X205050030Y-94244918D01*
X205056903Y-94150635D01*
X205070205Y-94082094D01*
X205094323Y-94022752D01*
X205121537Y-93975320D01*
X205220870Y-93849649D01*
X205341711Y-93760000D01*
X205485202Y-93705766D01*
X205652482Y-93686339D01*
X205664225Y-93686267D01*
X205664225Y-93425919D01*
X205660388Y-93425917D01*
X205553054Y-93426595D01*
X205476257Y-93430036D01*
X205418205Y-93438346D01*
X205367106Y-93453634D01*
X205311169Y-93478008D01*
X205277495Y-93494362D01*
X205135803Y-93584211D01*
X205006835Y-93703902D01*
X204902285Y-93841549D01*
X204860646Y-93917986D01*
X204834834Y-93977360D01*
X204818175Y-94031115D01*
X204808716Y-94091401D01*
X204804504Y-94170371D01*
X204803584Y-94273029D01*
X204804371Y-94378210D01*
X204804371Y-94378210D01*
G37*
X204804371Y-94378210D02*
X204808250Y-94453438D01*
X204817496Y-94511086D01*
X204834382Y-94563527D01*
X204861184Y-94623132D01*
X204872029Y-94645339D01*
X204961878Y-94787030D01*
X205081569Y-94915999D01*
X205219216Y-95020549D01*
X205295653Y-95062187D01*
X205353462Y-95087428D01*
X205405701Y-95103940D01*
X205463978Y-95113536D01*
X205539905Y-95118032D01*
X205645089Y-95119240D01*
X205660834Y-95119250D01*
X205770859Y-95118288D01*
X205850027Y-95114236D01*
X205909791Y-95105343D01*
X205961608Y-95089860D01*
X206016930Y-95066036D01*
X206020667Y-95064277D01*
X206181391Y-94965438D01*
X206317718Y-94834051D01*
X206424370Y-94675340D01*
X206435296Y-94653954D01*
X206476465Y-94564428D01*
X206500960Y-94489705D01*
X206513858Y-94409791D01*
X206519521Y-94322238D01*
X206520622Y-94227757D01*
X206516623Y-94138693D01*
X206508375Y-94071898D01*
X206506471Y-94063409D01*
X206446783Y-93905892D01*
X206352439Y-93756435D01*
X206231102Y-93624228D01*
X206090435Y-93518458D01*
X206020667Y-93480890D01*
X205964825Y-93456525D01*
X205913187Y-93440590D01*
X205854319Y-93431341D01*
X205776790Y-93427032D01*
X205669165Y-93425920D01*
X205664225Y-93425919D01*
X205664225Y-93686267D01*
X205826335Y-93705023D01*
X205968819Y-93758291D01*
X206088155Y-93841568D01*
X206180821Y-93950353D01*
X206243294Y-94080144D01*
X206272053Y-94226440D01*
X206263574Y-94384739D01*
X206252260Y-94437835D01*
X206198691Y-94567312D01*
X206111511Y-94678614D01*
X205997263Y-94766979D01*
X205862490Y-94827644D01*
X205713733Y-94855844D01*
X205676204Y-94857256D01*
X205504594Y-94841094D01*
X205355962Y-94790394D01*
X205231848Y-94706039D01*
X205133794Y-94588913D01*
X205098945Y-94526492D01*
X205069399Y-94460140D01*
X205053358Y-94402208D01*
X205047891Y-94335828D01*
X205050030Y-94244918D01*
X205056903Y-94150635D01*
X205070205Y-94082094D01*
X205094323Y-94022752D01*
X205121537Y-93975320D01*
X205220870Y-93849649D01*
X205341711Y-93760000D01*
X205485202Y-93705766D01*
X205652482Y-93686339D01*
X205664225Y-93686267D01*
X205664225Y-93425919D01*
X205660388Y-93425917D01*
X205553054Y-93426595D01*
X205476257Y-93430036D01*
X205418205Y-93438346D01*
X205367106Y-93453634D01*
X205311169Y-93478008D01*
X205277495Y-93494362D01*
X205135803Y-93584211D01*
X205006835Y-93703902D01*
X204902285Y-93841549D01*
X204860646Y-93917986D01*
X204834834Y-93977360D01*
X204818175Y-94031115D01*
X204808716Y-94091401D01*
X204804504Y-94170371D01*
X204803584Y-94273029D01*
X204804371Y-94378210D01*
G36*
X204804371Y-85911543D02*
G01*
X204808250Y-85986771D01*
X204817496Y-86044419D01*
X204834382Y-86096860D01*
X204861184Y-86156466D01*
X204872029Y-86178672D01*
X204973714Y-86339859D01*
X205103315Y-86471348D01*
X205256547Y-86570919D01*
X205429125Y-86636354D01*
X205616762Y-86665435D01*
X205798417Y-86658251D01*
X205968603Y-86615624D01*
X206125988Y-86536460D01*
X206264977Y-86425938D01*
X206379978Y-86289236D01*
X206465394Y-86131535D01*
X206506679Y-86002585D01*
X206522482Y-85887652D01*
X206524320Y-85756446D01*
X206512283Y-85632627D01*
X206505123Y-85596742D01*
X206448308Y-85441300D01*
X206355954Y-85293782D01*
X206234858Y-85162366D01*
X206091812Y-85055233D01*
X206024735Y-85018417D01*
X205968429Y-84992445D01*
X205918373Y-84975400D01*
X205863149Y-84965429D01*
X205791338Y-84960676D01*
X205691521Y-84959289D01*
X205669261Y-84959262D01*
X205669261Y-85223834D01*
X205830676Y-85242533D01*
X205972071Y-85295617D01*
X206090113Y-85378565D01*
X206181470Y-85486858D01*
X206242811Y-85615975D01*
X206270802Y-85761395D01*
X206262113Y-85918600D01*
X206242567Y-86001576D01*
X206184501Y-86126171D01*
X206093744Y-86231555D01*
X205976993Y-86314023D01*
X205840949Y-86369871D01*
X205692309Y-86395394D01*
X205543881Y-86387913D01*
X205388589Y-86343359D01*
X205258688Y-86266421D01*
X205157190Y-86160649D01*
X205087111Y-86029595D01*
X205051466Y-85876811D01*
X205047465Y-85803042D01*
X205064893Y-85646936D01*
X205118685Y-85512176D01*
X205209563Y-85397271D01*
X205267044Y-85348371D01*
X205367529Y-85283429D01*
X205468893Y-85244329D01*
X205586255Y-85226389D01*
X205669261Y-85223834D01*
X205669261Y-84959262D01*
X205660388Y-84959250D01*
X205553054Y-84959929D01*
X205476257Y-84963369D01*
X205418205Y-84971679D01*
X205367106Y-84986967D01*
X205311169Y-85011341D01*
X205277495Y-85027695D01*
X205135803Y-85117545D01*
X205006835Y-85237235D01*
X204902285Y-85374882D01*
X204860646Y-85451319D01*
X204834834Y-85510693D01*
X204818175Y-85564448D01*
X204808716Y-85624734D01*
X204804504Y-85703705D01*
X204803584Y-85806362D01*
X204804371Y-85911543D01*
X204804371Y-85911543D01*
G37*
X204804371Y-85911543D02*
X204808250Y-85986771D01*
X204817496Y-86044419D01*
X204834382Y-86096860D01*
X204861184Y-86156466D01*
X204872029Y-86178672D01*
X204973714Y-86339859D01*
X205103315Y-86471348D01*
X205256547Y-86570919D01*
X205429125Y-86636354D01*
X205616762Y-86665435D01*
X205798417Y-86658251D01*
X205968603Y-86615624D01*
X206125988Y-86536460D01*
X206264977Y-86425938D01*
X206379978Y-86289236D01*
X206465394Y-86131535D01*
X206506679Y-86002585D01*
X206522482Y-85887652D01*
X206524320Y-85756446D01*
X206512283Y-85632627D01*
X206505123Y-85596742D01*
X206448308Y-85441300D01*
X206355954Y-85293782D01*
X206234858Y-85162366D01*
X206091812Y-85055233D01*
X206024735Y-85018417D01*
X205968429Y-84992445D01*
X205918373Y-84975400D01*
X205863149Y-84965429D01*
X205791338Y-84960676D01*
X205691521Y-84959289D01*
X205669261Y-84959262D01*
X205669261Y-85223834D01*
X205830676Y-85242533D01*
X205972071Y-85295617D01*
X206090113Y-85378565D01*
X206181470Y-85486858D01*
X206242811Y-85615975D01*
X206270802Y-85761395D01*
X206262113Y-85918600D01*
X206242567Y-86001576D01*
X206184501Y-86126171D01*
X206093744Y-86231555D01*
X205976993Y-86314023D01*
X205840949Y-86369871D01*
X205692309Y-86395394D01*
X205543881Y-86387913D01*
X205388589Y-86343359D01*
X205258688Y-86266421D01*
X205157190Y-86160649D01*
X205087111Y-86029595D01*
X205051466Y-85876811D01*
X205047465Y-85803042D01*
X205064893Y-85646936D01*
X205118685Y-85512176D01*
X205209563Y-85397271D01*
X205267044Y-85348371D01*
X205367529Y-85283429D01*
X205468893Y-85244329D01*
X205586255Y-85226389D01*
X205669261Y-85223834D01*
X205669261Y-84959262D01*
X205660388Y-84959250D01*
X205553054Y-84959929D01*
X205476257Y-84963369D01*
X205418205Y-84971679D01*
X205367106Y-84986967D01*
X205311169Y-85011341D01*
X205277495Y-85027695D01*
X205135803Y-85117545D01*
X205006835Y-85237235D01*
X204902285Y-85374882D01*
X204860646Y-85451319D01*
X204834834Y-85510693D01*
X204818175Y-85564448D01*
X204808716Y-85624734D01*
X204804504Y-85703705D01*
X204803584Y-85806362D01*
X204804371Y-85911543D01*
G36*
X204809700Y-77370012D02*
G01*
X204859417Y-77486170D01*
X204943420Y-77591963D01*
X204968420Y-77614716D01*
X205020007Y-77655094D01*
X205059776Y-77679417D01*
X205074130Y-77682985D01*
X205094385Y-77662379D01*
X205125994Y-77616350D01*
X205147779Y-77579881D01*
X205202748Y-77483004D01*
X205124874Y-77405130D01*
X205063451Y-77321613D01*
X205042925Y-77237044D01*
X205063479Y-77154960D01*
X205108872Y-77094205D01*
X205179297Y-77043007D01*
X205247928Y-77032616D01*
X205315273Y-77063361D01*
X205381838Y-77135572D01*
X205448130Y-77249578D01*
X205489377Y-77341542D01*
X205564581Y-77502227D01*
X205643104Y-77624028D01*
X205728839Y-77710391D01*
X205825682Y-77764761D01*
X205937526Y-77790584D01*
X206000636Y-77793869D01*
X206141338Y-77774340D01*
X206269549Y-77718111D01*
X206378188Y-77630436D01*
X206460170Y-77516567D01*
X206497525Y-77425367D01*
X206520176Y-77312586D01*
X206525730Y-77194972D01*
X206513558Y-77092009D01*
X206508873Y-77074667D01*
X206474650Y-76988142D01*
X206427549Y-76900716D01*
X206377295Y-76829422D01*
X206356102Y-76807014D01*
X206302485Y-76764077D01*
X206239602Y-76722071D01*
X206180722Y-76689041D01*
X206139113Y-76673033D01*
X206134398Y-76672579D01*
X206113170Y-76690279D01*
X206086403Y-76734456D01*
X206059931Y-76791559D01*
X206039588Y-76848039D01*
X206031208Y-76890345D01*
X206034857Y-76903758D01*
X206061380Y-76924165D01*
X206108407Y-76959218D01*
X206134038Y-76978083D01*
X206217247Y-77062692D01*
X206262615Y-77165292D01*
X206268731Y-77282012D01*
X206240054Y-77377136D01*
X206183024Y-77451254D01*
X206106031Y-77498962D01*
X206017465Y-77514859D01*
X205934359Y-77497320D01*
X205872758Y-77459088D01*
X205815476Y-77394707D01*
X205758611Y-77298805D01*
X205704312Y-77180500D01*
X205634915Y-77032979D01*
X205564866Y-76923409D01*
X205489431Y-76847603D01*
X205403879Y-76801377D01*
X205303478Y-76780543D01*
X205249650Y-76778334D01*
X205116711Y-76796499D01*
X205003721Y-76846936D01*
X204912729Y-76923554D01*
X204845783Y-77020261D01*
X204804931Y-77130967D01*
X204792221Y-77249581D01*
X204809700Y-77370012D01*
X204809700Y-77370012D01*
G37*
X204809700Y-77370012D02*
X204859417Y-77486170D01*
X204943420Y-77591963D01*
X204968420Y-77614716D01*
X205020007Y-77655094D01*
X205059776Y-77679417D01*
X205074130Y-77682985D01*
X205094385Y-77662379D01*
X205125994Y-77616350D01*
X205147779Y-77579881D01*
X205202748Y-77483004D01*
X205124874Y-77405130D01*
X205063451Y-77321613D01*
X205042925Y-77237044D01*
X205063479Y-77154960D01*
X205108872Y-77094205D01*
X205179297Y-77043007D01*
X205247928Y-77032616D01*
X205315273Y-77063361D01*
X205381838Y-77135572D01*
X205448130Y-77249578D01*
X205489377Y-77341542D01*
X205564581Y-77502227D01*
X205643104Y-77624028D01*
X205728839Y-77710391D01*
X205825682Y-77764761D01*
X205937526Y-77790584D01*
X206000636Y-77793869D01*
X206141338Y-77774340D01*
X206269549Y-77718111D01*
X206378188Y-77630436D01*
X206460170Y-77516567D01*
X206497525Y-77425367D01*
X206520176Y-77312586D01*
X206525730Y-77194972D01*
X206513558Y-77092009D01*
X206508873Y-77074667D01*
X206474650Y-76988142D01*
X206427549Y-76900716D01*
X206377295Y-76829422D01*
X206356102Y-76807014D01*
X206302485Y-76764077D01*
X206239602Y-76722071D01*
X206180722Y-76689041D01*
X206139113Y-76673033D01*
X206134398Y-76672579D01*
X206113170Y-76690279D01*
X206086403Y-76734456D01*
X206059931Y-76791559D01*
X206039588Y-76848039D01*
X206031208Y-76890345D01*
X206034857Y-76903758D01*
X206061380Y-76924165D01*
X206108407Y-76959218D01*
X206134038Y-76978083D01*
X206217247Y-77062692D01*
X206262615Y-77165292D01*
X206268731Y-77282012D01*
X206240054Y-77377136D01*
X206183024Y-77451254D01*
X206106031Y-77498962D01*
X206017465Y-77514859D01*
X205934359Y-77497320D01*
X205872758Y-77459088D01*
X205815476Y-77394707D01*
X205758611Y-77298805D01*
X205704312Y-77180500D01*
X205634915Y-77032979D01*
X205564866Y-76923409D01*
X205489431Y-76847603D01*
X205403879Y-76801377D01*
X205303478Y-76780543D01*
X205249650Y-76778334D01*
X205116711Y-76796499D01*
X205003721Y-76846936D01*
X204912729Y-76923554D01*
X204845783Y-77020261D01*
X204804931Y-77130967D01*
X204792221Y-77249581D01*
X204809700Y-77370012D01*
G36*
X204805237Y-74707126D02*
G01*
X204810986Y-74786364D01*
X204822865Y-74848427D01*
X204842752Y-74905861D01*
X204853563Y-74930775D01*
X204933957Y-75060209D01*
X205047554Y-75174081D01*
X205186557Y-75267365D01*
X205343168Y-75335036D01*
X205509588Y-75372070D01*
X205543492Y-75375368D01*
X205703167Y-75387444D01*
X205703167Y-74084781D01*
X205808884Y-74094939D01*
X205933482Y-74126691D01*
X206051761Y-74193398D01*
X206152407Y-74287978D01*
X206183499Y-74329489D01*
X206246629Y-74458688D01*
X206271395Y-74595434D01*
X206259214Y-74732794D01*
X206211501Y-74863836D01*
X206129674Y-74981627D01*
X206032805Y-75067248D01*
X205938425Y-75133773D01*
X205977889Y-75209928D01*
X206019900Y-75288432D01*
X206051417Y-75333113D01*
X206081047Y-75347926D01*
X206117400Y-75336828D01*
X206169083Y-75303773D01*
X206174307Y-75300182D01*
X206308351Y-75185826D01*
X206412418Y-75050286D01*
X206467207Y-74938513D01*
X206494810Y-74838578D01*
X206513356Y-74717211D01*
X206521639Y-74590642D01*
X206518454Y-74475101D01*
X206507035Y-74402289D01*
X206445247Y-74239713D01*
X206350074Y-74098432D01*
X206226218Y-73981267D01*
X206078385Y-73891041D01*
X205911278Y-73830574D01*
X205729600Y-73802687D01*
X205538056Y-73810203D01*
X205523358Y-73812282D01*
X205456805Y-73827941D01*
X205456805Y-74100170D01*
X205475570Y-74103986D01*
X205480116Y-74127065D01*
X205484157Y-74186399D01*
X205487497Y-74275911D01*
X205489941Y-74389523D01*
X205491293Y-74521158D01*
X205491500Y-74599416D01*
X205491380Y-74754744D01*
X205490718Y-74872837D01*
X205489060Y-74958794D01*
X205485953Y-75017713D01*
X205480944Y-75054695D01*
X205473579Y-75074836D01*
X205463405Y-75083236D01*
X205449969Y-75084993D01*
X205448324Y-75085000D01*
X205383984Y-75070310D01*
X205305558Y-75031398D01*
X205226719Y-74975999D01*
X205180365Y-74933397D01*
X205098024Y-74819597D01*
X205053739Y-74693994D01*
X205047226Y-74562725D01*
X205078197Y-74431928D01*
X205146367Y-74307741D01*
X205213123Y-74230885D01*
X205272234Y-74182734D01*
X205340303Y-74141149D01*
X205405703Y-74111754D01*
X205456805Y-74100170D01*
X205456805Y-73827941D01*
X205333293Y-73857002D01*
X205169338Y-73932029D01*
X205025391Y-74040201D01*
X205017351Y-74047719D01*
X204928347Y-74142096D01*
X204866662Y-74235576D01*
X204828125Y-74338904D01*
X204808565Y-74462829D01*
X204803738Y-74598167D01*
X204805237Y-74707126D01*
X204805237Y-74707126D01*
G37*
X204805237Y-74707126D02*
X204810986Y-74786364D01*
X204822865Y-74848427D01*
X204842752Y-74905861D01*
X204853563Y-74930775D01*
X204933957Y-75060209D01*
X205047554Y-75174081D01*
X205186557Y-75267365D01*
X205343168Y-75335036D01*
X205509588Y-75372070D01*
X205543492Y-75375368D01*
X205703167Y-75387444D01*
X205703167Y-74084781D01*
X205808884Y-74094939D01*
X205933482Y-74126691D01*
X206051761Y-74193398D01*
X206152407Y-74287978D01*
X206183499Y-74329489D01*
X206246629Y-74458688D01*
X206271395Y-74595434D01*
X206259214Y-74732794D01*
X206211501Y-74863836D01*
X206129674Y-74981627D01*
X206032805Y-75067248D01*
X205938425Y-75133773D01*
X205977889Y-75209928D01*
X206019900Y-75288432D01*
X206051417Y-75333113D01*
X206081047Y-75347926D01*
X206117400Y-75336828D01*
X206169083Y-75303773D01*
X206174307Y-75300182D01*
X206308351Y-75185826D01*
X206412418Y-75050286D01*
X206467207Y-74938513D01*
X206494810Y-74838578D01*
X206513356Y-74717211D01*
X206521639Y-74590642D01*
X206518454Y-74475101D01*
X206507035Y-74402289D01*
X206445247Y-74239713D01*
X206350074Y-74098432D01*
X206226218Y-73981267D01*
X206078385Y-73891041D01*
X205911278Y-73830574D01*
X205729600Y-73802687D01*
X205538056Y-73810203D01*
X205523358Y-73812282D01*
X205456805Y-73827941D01*
X205456805Y-74100170D01*
X205475570Y-74103986D01*
X205480116Y-74127065D01*
X205484157Y-74186399D01*
X205487497Y-74275911D01*
X205489941Y-74389523D01*
X205491293Y-74521158D01*
X205491500Y-74599416D01*
X205491380Y-74754744D01*
X205490718Y-74872837D01*
X205489060Y-74958794D01*
X205485953Y-75017713D01*
X205480944Y-75054695D01*
X205473579Y-75074836D01*
X205463405Y-75083236D01*
X205449969Y-75084993D01*
X205448324Y-75085000D01*
X205383984Y-75070310D01*
X205305558Y-75031398D01*
X205226719Y-74975999D01*
X205180365Y-74933397D01*
X205098024Y-74819597D01*
X205053739Y-74693994D01*
X205047226Y-74562725D01*
X205078197Y-74431928D01*
X205146367Y-74307741D01*
X205213123Y-74230885D01*
X205272234Y-74182734D01*
X205340303Y-74141149D01*
X205405703Y-74111754D01*
X205456805Y-74100170D01*
X205456805Y-73827941D01*
X205333293Y-73857002D01*
X205169338Y-73932029D01*
X205025391Y-74040201D01*
X205017351Y-74047719D01*
X204928347Y-74142096D01*
X204866662Y-74235576D01*
X204828125Y-74338904D01*
X204808565Y-74462829D01*
X204803738Y-74598167D01*
X204805237Y-74707126D01*
G36*
X204837463Y-106703696D02*
G01*
X204843764Y-106750426D01*
X204855676Y-106766014D01*
X204861792Y-106764957D01*
X204892408Y-106751348D01*
X204955265Y-106722788D01*
X205045625Y-106681464D01*
X205158750Y-106629563D01*
X205289901Y-106569272D01*
X205434340Y-106502778D01*
X205587328Y-106432269D01*
X205744126Y-106359931D01*
X205899997Y-106287951D01*
X206050202Y-106218517D01*
X206190002Y-106153815D01*
X206314658Y-106096032D01*
X206419434Y-106047356D01*
X206499589Y-106009974D01*
X206550385Y-105986072D01*
X206567117Y-105977866D01*
X206560070Y-105963260D01*
X206556533Y-105960858D01*
X206534243Y-105950043D01*
X206477508Y-105923393D01*
X206390340Y-105882769D01*
X206276752Y-105830032D01*
X206140757Y-105767044D01*
X205986366Y-105695665D01*
X205817593Y-105617758D01*
X205703167Y-105565000D01*
X205527277Y-105483885D01*
X205363205Y-105408113D01*
X205214960Y-105339541D01*
X205086551Y-105280031D01*
X204981986Y-105231441D01*
X204905276Y-105195631D01*
X204860430Y-105174460D01*
X204850285Y-105169442D01*
X204843105Y-105183772D01*
X204839154Y-105230968D01*
X204839092Y-105301638D01*
X204839702Y-105320368D01*
X204845917Y-105481543D01*
X205375084Y-105715426D01*
X205514780Y-105777462D01*
X205641806Y-105834427D01*
X205750993Y-105883959D01*
X205837173Y-105923698D01*
X205895178Y-105951279D01*
X205919842Y-105964341D01*
X205920109Y-105964572D01*
X205905681Y-105976647D01*
X205857093Y-106003236D01*
X205779050Y-106042069D01*
X205676255Y-106090876D01*
X205553414Y-106147389D01*
X205415230Y-106209337D01*
X205386099Y-106222209D01*
X204836230Y-106464584D01*
X204835782Y-106620306D01*
X204837463Y-106703696D01*
X204837463Y-106703696D01*
G37*
X204837463Y-106703696D02*
X204843764Y-106750426D01*
X204855676Y-106766014D01*
X204861792Y-106764957D01*
X204892408Y-106751348D01*
X204955265Y-106722788D01*
X205045625Y-106681464D01*
X205158750Y-106629563D01*
X205289901Y-106569272D01*
X205434340Y-106502778D01*
X205587328Y-106432269D01*
X205744126Y-106359931D01*
X205899997Y-106287951D01*
X206050202Y-106218517D01*
X206190002Y-106153815D01*
X206314658Y-106096032D01*
X206419434Y-106047356D01*
X206499589Y-106009974D01*
X206550385Y-105986072D01*
X206567117Y-105977866D01*
X206560070Y-105963260D01*
X206556533Y-105960858D01*
X206534243Y-105950043D01*
X206477508Y-105923393D01*
X206390340Y-105882769D01*
X206276752Y-105830032D01*
X206140757Y-105767044D01*
X205986366Y-105695665D01*
X205817593Y-105617758D01*
X205703167Y-105565000D01*
X205527277Y-105483885D01*
X205363205Y-105408113D01*
X205214960Y-105339541D01*
X205086551Y-105280031D01*
X204981986Y-105231441D01*
X204905276Y-105195631D01*
X204860430Y-105174460D01*
X204850285Y-105169442D01*
X204843105Y-105183772D01*
X204839154Y-105230968D01*
X204839092Y-105301638D01*
X204839702Y-105320368D01*
X204845917Y-105481543D01*
X205375084Y-105715426D01*
X205514780Y-105777462D01*
X205641806Y-105834427D01*
X205750993Y-105883959D01*
X205837173Y-105923698D01*
X205895178Y-105951279D01*
X205919842Y-105964341D01*
X205920109Y-105964572D01*
X205905681Y-105976647D01*
X205857093Y-106003236D01*
X205779050Y-106042069D01*
X205676255Y-106090876D01*
X205553414Y-106147389D01*
X205415230Y-106209337D01*
X205386099Y-106222209D01*
X204836230Y-106464584D01*
X204835782Y-106620306D01*
X204837463Y-106703696D01*
G36*
X204758796Y-99734465D02*
G01*
X204807980Y-99759766D01*
X204887275Y-99796896D01*
X204992127Y-99843798D01*
X205117983Y-99898413D01*
X205260290Y-99958687D01*
X205331650Y-99988421D01*
X205480982Y-100050699D01*
X205616869Y-100108092D01*
X205734596Y-100158551D01*
X205829447Y-100200026D01*
X205896707Y-100230469D01*
X205931660Y-100247832D01*
X205935593Y-100250846D01*
X205916879Y-100262069D01*
X205864217Y-100287883D01*
X205782496Y-100326042D01*
X205676607Y-100374298D01*
X205551441Y-100430402D01*
X205411888Y-100492107D01*
X205385259Y-100503792D01*
X204835334Y-100744834D01*
X204835334Y-101054730D01*
X204967625Y-100994940D01*
X205026250Y-100968225D01*
X205112785Y-100928495D01*
X205222409Y-100877986D01*
X205350305Y-100818932D01*
X205491655Y-100753569D01*
X205641640Y-100684131D01*
X205795442Y-100612854D01*
X205948242Y-100541972D01*
X206095222Y-100473720D01*
X206231564Y-100410333D01*
X206352448Y-100354047D01*
X206453057Y-100307096D01*
X206528572Y-100271715D01*
X206574175Y-100250139D01*
X206585872Y-100244341D01*
X206568180Y-100235540D01*
X206516038Y-100212674D01*
X206434164Y-100177735D01*
X206327278Y-100132719D01*
X206200098Y-100079620D01*
X206057343Y-100020429D01*
X205997079Y-99995553D01*
X205848852Y-99933918D01*
X205713914Y-99876798D01*
X205597080Y-99826313D01*
X205503167Y-99784582D01*
X205436991Y-99753723D01*
X205403369Y-99735856D01*
X205400124Y-99732891D01*
X205417941Y-99720582D01*
X205470231Y-99694487D01*
X205552237Y-99656733D01*
X205659202Y-99609445D01*
X205786370Y-99554749D01*
X205928984Y-99494770D01*
X205983625Y-99472115D01*
X206130788Y-99410917D01*
X206264411Y-99354560D01*
X206379710Y-99305126D01*
X206471901Y-99264694D01*
X206536198Y-99235346D01*
X206567818Y-99219164D01*
X206570280Y-99216955D01*
X206551494Y-99205853D01*
X206498018Y-99179086D01*
X206413717Y-99138474D01*
X206302453Y-99085836D01*
X206168092Y-99022990D01*
X206014498Y-98951757D01*
X205845534Y-98873955D01*
X205707739Y-98810875D01*
X204845917Y-98417334D01*
X204839629Y-98565594D01*
X204839059Y-98656407D01*
X204847163Y-98710511D01*
X204860795Y-98730937D01*
X204886874Y-98743656D01*
X204946432Y-98770824D01*
X205034108Y-98810056D01*
X205144539Y-98858965D01*
X205272363Y-98915166D01*
X205412093Y-98976219D01*
X205550244Y-99036803D01*
X205674743Y-99092171D01*
X205780577Y-99140031D01*
X205862732Y-99178091D01*
X205916194Y-99204058D01*
X205935949Y-99215641D01*
X205935968Y-99215746D01*
X205917159Y-99226294D01*
X205863916Y-99250683D01*
X205781037Y-99286855D01*
X205673323Y-99332753D01*
X205545571Y-99386318D01*
X205402582Y-99445492D01*
X205348625Y-99467638D01*
X205200376Y-99528608D01*
X205064740Y-99584878D01*
X204946701Y-99634343D01*
X204851241Y-99674895D01*
X204783343Y-99704429D01*
X204747991Y-99720839D01*
X204744275Y-99723050D01*
X204758796Y-99734465D01*
X204758796Y-99734465D01*
G37*
X204758796Y-99734465D02*
X204807980Y-99759766D01*
X204887275Y-99796896D01*
X204992127Y-99843798D01*
X205117983Y-99898413D01*
X205260290Y-99958687D01*
X205331650Y-99988421D01*
X205480982Y-100050699D01*
X205616869Y-100108092D01*
X205734596Y-100158551D01*
X205829447Y-100200026D01*
X205896707Y-100230469D01*
X205931660Y-100247832D01*
X205935593Y-100250846D01*
X205916879Y-100262069D01*
X205864217Y-100287883D01*
X205782496Y-100326042D01*
X205676607Y-100374298D01*
X205551441Y-100430402D01*
X205411888Y-100492107D01*
X205385259Y-100503792D01*
X204835334Y-100744834D01*
X204835334Y-101054730D01*
X204967625Y-100994940D01*
X205026250Y-100968225D01*
X205112785Y-100928495D01*
X205222409Y-100877986D01*
X205350305Y-100818932D01*
X205491655Y-100753569D01*
X205641640Y-100684131D01*
X205795442Y-100612854D01*
X205948242Y-100541972D01*
X206095222Y-100473720D01*
X206231564Y-100410333D01*
X206352448Y-100354047D01*
X206453057Y-100307096D01*
X206528572Y-100271715D01*
X206574175Y-100250139D01*
X206585872Y-100244341D01*
X206568180Y-100235540D01*
X206516038Y-100212674D01*
X206434164Y-100177735D01*
X206327278Y-100132719D01*
X206200098Y-100079620D01*
X206057343Y-100020429D01*
X205997079Y-99995553D01*
X205848852Y-99933918D01*
X205713914Y-99876798D01*
X205597080Y-99826313D01*
X205503167Y-99784582D01*
X205436991Y-99753723D01*
X205403369Y-99735856D01*
X205400124Y-99732891D01*
X205417941Y-99720582D01*
X205470231Y-99694487D01*
X205552237Y-99656733D01*
X205659202Y-99609445D01*
X205786370Y-99554749D01*
X205928984Y-99494770D01*
X205983625Y-99472115D01*
X206130788Y-99410917D01*
X206264411Y-99354560D01*
X206379710Y-99305126D01*
X206471901Y-99264694D01*
X206536198Y-99235346D01*
X206567818Y-99219164D01*
X206570280Y-99216955D01*
X206551494Y-99205853D01*
X206498018Y-99179086D01*
X206413717Y-99138474D01*
X206302453Y-99085836D01*
X206168092Y-99022990D01*
X206014498Y-98951757D01*
X205845534Y-98873955D01*
X205707739Y-98810875D01*
X204845917Y-98417334D01*
X204839629Y-98565594D01*
X204839059Y-98656407D01*
X204847163Y-98710511D01*
X204860795Y-98730937D01*
X204886874Y-98743656D01*
X204946432Y-98770824D01*
X205034108Y-98810056D01*
X205144539Y-98858965D01*
X205272363Y-98915166D01*
X205412093Y-98976219D01*
X205550244Y-99036803D01*
X205674743Y-99092171D01*
X205780577Y-99140031D01*
X205862732Y-99178091D01*
X205916194Y-99204058D01*
X205935949Y-99215641D01*
X205935968Y-99215746D01*
X205917159Y-99226294D01*
X205863916Y-99250683D01*
X205781037Y-99286855D01*
X205673323Y-99332753D01*
X205545571Y-99386318D01*
X205402582Y-99445492D01*
X205348625Y-99467638D01*
X205200376Y-99528608D01*
X205064740Y-99584878D01*
X204946701Y-99634343D01*
X204851241Y-99674895D01*
X204783343Y-99704429D01*
X204747991Y-99720839D01*
X204744275Y-99723050D01*
X204758796Y-99734465D01*
G36*
X204814167Y-71351929D02*
G01*
X204859676Y-71371354D01*
X204937892Y-71404123D01*
X205042340Y-71447550D01*
X205166547Y-71498949D01*
X205304038Y-71555634D01*
X205422347Y-71604256D01*
X205559613Y-71661048D01*
X205683043Y-71713001D01*
X205787497Y-71757878D01*
X205867831Y-71793444D01*
X205918904Y-71817460D01*
X205935638Y-71827509D01*
X205917124Y-71838946D01*
X205864641Y-71864947D01*
X205783071Y-71903258D01*
X205677297Y-71951626D01*
X205552199Y-72007799D01*
X205412660Y-72069522D01*
X205385667Y-72081363D01*
X204835334Y-72322457D01*
X204835334Y-72477826D01*
X204837717Y-72551596D01*
X204844015Y-72604324D01*
X204852954Y-72626179D01*
X204854587Y-72626139D01*
X204888460Y-72611864D01*
X204954016Y-72582570D01*
X205046561Y-72540451D01*
X205161402Y-72487702D01*
X205293846Y-72426515D01*
X205439200Y-72359085D01*
X205592770Y-72287606D01*
X205749864Y-72214270D01*
X205905787Y-72141273D01*
X206055848Y-72070808D01*
X206195353Y-72005069D01*
X206319608Y-71946250D01*
X206423920Y-71896543D01*
X206503596Y-71858145D01*
X206553944Y-71833247D01*
X206570335Y-71824115D01*
X206551718Y-71813377D01*
X206498709Y-71788669D01*
X206416089Y-71752069D01*
X206308641Y-71705657D01*
X206181144Y-71651513D01*
X206038380Y-71591715D01*
X205983625Y-71568979D01*
X205836929Y-71507435D01*
X205704274Y-71450296D01*
X205590353Y-71399704D01*
X205499856Y-71357797D01*
X205437477Y-71326715D01*
X205407906Y-71308600D01*
X205406219Y-71305613D01*
X205427660Y-71292644D01*
X205483250Y-71265981D01*
X205567914Y-71227863D01*
X205676578Y-71180526D01*
X205804170Y-71126209D01*
X205945614Y-71067148D01*
X205967136Y-71058256D01*
X206111773Y-70998556D01*
X206244907Y-70943564D01*
X206361139Y-70895513D01*
X206455070Y-70856636D01*
X206521299Y-70829167D01*
X206554429Y-70815340D01*
X206555903Y-70814712D01*
X206554153Y-70805371D01*
X206526785Y-70785657D01*
X206471906Y-70754623D01*
X206387622Y-70711321D01*
X206272037Y-70654804D01*
X206123256Y-70584126D01*
X205939386Y-70498338D01*
X205729973Y-70401748D01*
X205551190Y-70319790D01*
X205384191Y-70243547D01*
X205232911Y-70174793D01*
X205101286Y-70115302D01*
X204993252Y-70066849D01*
X204912746Y-70031209D01*
X204863704Y-70010155D01*
X204849851Y-70005000D01*
X204842669Y-70024365D01*
X204838933Y-70075428D01*
X204839350Y-70147643D01*
X204839698Y-70156870D01*
X204845917Y-70308740D01*
X205375084Y-70539166D01*
X205515027Y-70600437D01*
X205642328Y-70656806D01*
X205751783Y-70705919D01*
X205838190Y-70745422D01*
X205896347Y-70772960D01*
X205921051Y-70786177D01*
X205921275Y-70786380D01*
X205907112Y-70798512D01*
X205858549Y-70824230D01*
X205780452Y-70861297D01*
X205677685Y-70907476D01*
X205555114Y-70960528D01*
X205417604Y-71018216D01*
X205413275Y-71020005D01*
X205268953Y-71079672D01*
X205133310Y-71135866D01*
X205012549Y-71186008D01*
X204912876Y-71227518D01*
X204840493Y-71257818D01*
X204803584Y-71273469D01*
X204718917Y-71310095D01*
X204814167Y-71351929D01*
X204814167Y-71351929D01*
G37*
X204814167Y-71351929D02*
X204859676Y-71371354D01*
X204937892Y-71404123D01*
X205042340Y-71447550D01*
X205166547Y-71498949D01*
X205304038Y-71555634D01*
X205422347Y-71604256D01*
X205559613Y-71661048D01*
X205683043Y-71713001D01*
X205787497Y-71757878D01*
X205867831Y-71793444D01*
X205918904Y-71817460D01*
X205935638Y-71827509D01*
X205917124Y-71838946D01*
X205864641Y-71864947D01*
X205783071Y-71903258D01*
X205677297Y-71951626D01*
X205552199Y-72007799D01*
X205412660Y-72069522D01*
X205385667Y-72081363D01*
X204835334Y-72322457D01*
X204835334Y-72477826D01*
X204837717Y-72551596D01*
X204844015Y-72604324D01*
X204852954Y-72626179D01*
X204854587Y-72626139D01*
X204888460Y-72611864D01*
X204954016Y-72582570D01*
X205046561Y-72540451D01*
X205161402Y-72487702D01*
X205293846Y-72426515D01*
X205439200Y-72359085D01*
X205592770Y-72287606D01*
X205749864Y-72214270D01*
X205905787Y-72141273D01*
X206055848Y-72070808D01*
X206195353Y-72005069D01*
X206319608Y-71946250D01*
X206423920Y-71896543D01*
X206503596Y-71858145D01*
X206553944Y-71833247D01*
X206570335Y-71824115D01*
X206551718Y-71813377D01*
X206498709Y-71788669D01*
X206416089Y-71752069D01*
X206308641Y-71705657D01*
X206181144Y-71651513D01*
X206038380Y-71591715D01*
X205983625Y-71568979D01*
X205836929Y-71507435D01*
X205704274Y-71450296D01*
X205590353Y-71399704D01*
X205499856Y-71357797D01*
X205437477Y-71326715D01*
X205407906Y-71308600D01*
X205406219Y-71305613D01*
X205427660Y-71292644D01*
X205483250Y-71265981D01*
X205567914Y-71227863D01*
X205676578Y-71180526D01*
X205804170Y-71126209D01*
X205945614Y-71067148D01*
X205967136Y-71058256D01*
X206111773Y-70998556D01*
X206244907Y-70943564D01*
X206361139Y-70895513D01*
X206455070Y-70856636D01*
X206521299Y-70829167D01*
X206554429Y-70815340D01*
X206555903Y-70814712D01*
X206554153Y-70805371D01*
X206526785Y-70785657D01*
X206471906Y-70754623D01*
X206387622Y-70711321D01*
X206272037Y-70654804D01*
X206123256Y-70584126D01*
X205939386Y-70498338D01*
X205729973Y-70401748D01*
X205551190Y-70319790D01*
X205384191Y-70243547D01*
X205232911Y-70174793D01*
X205101286Y-70115302D01*
X204993252Y-70066849D01*
X204912746Y-70031209D01*
X204863704Y-70010155D01*
X204849851Y-70005000D01*
X204842669Y-70024365D01*
X204838933Y-70075428D01*
X204839350Y-70147643D01*
X204839698Y-70156870D01*
X204845917Y-70308740D01*
X205375084Y-70539166D01*
X205515027Y-70600437D01*
X205642328Y-70656806D01*
X205751783Y-70705919D01*
X205838190Y-70745422D01*
X205896347Y-70772960D01*
X205921051Y-70786177D01*
X205921275Y-70786380D01*
X205907112Y-70798512D01*
X205858549Y-70824230D01*
X205780452Y-70861297D01*
X205677685Y-70907476D01*
X205555114Y-70960528D01*
X205417604Y-71018216D01*
X205413275Y-71020005D01*
X205268953Y-71079672D01*
X205133310Y-71135866D01*
X205012549Y-71186008D01*
X204912876Y-71227518D01*
X204840493Y-71257818D01*
X204803584Y-71273469D01*
X204718917Y-71310095D01*
X204814167Y-71351929D01*
G36*
X205417417Y-91107783D02*
G01*
X205562081Y-91178477D01*
X205693637Y-91243674D01*
X205807457Y-91301011D01*
X205898916Y-91348121D01*
X205963386Y-91382639D01*
X205996241Y-91402200D01*
X205999500Y-91405374D01*
X205980939Y-91417479D01*
X205928403Y-91444505D01*
X205846616Y-91484208D01*
X205740300Y-91534343D01*
X205614178Y-91592668D01*
X205472973Y-91656936D01*
X205417417Y-91681968D01*
X204835334Y-91943513D01*
X204835334Y-92099104D01*
X204837614Y-92172936D01*
X204843644Y-92225733D01*
X204852200Y-92247672D01*
X204853785Y-92247639D01*
X204875602Y-92237606D01*
X204932481Y-92210973D01*
X205021222Y-92169251D01*
X205138622Y-92113949D01*
X205281481Y-92046579D01*
X205446597Y-91968649D01*
X205630768Y-91881671D01*
X205830793Y-91787154D01*
X206043470Y-91686608D01*
X206144952Y-91638615D01*
X207417667Y-91036646D01*
X207417667Y-90729935D01*
X207158375Y-90852615D01*
X207036002Y-90911144D01*
X206893446Y-90980309D01*
X206748252Y-91051547D01*
X206617969Y-91116294D01*
X206615665Y-91117450D01*
X206332247Y-91259603D01*
X205596998Y-90887552D01*
X205433949Y-90805211D01*
X205282785Y-90729193D01*
X205147652Y-90661556D01*
X205032693Y-90604362D01*
X204942054Y-90559671D01*
X204879881Y-90529543D01*
X204850318Y-90516039D01*
X204848541Y-90515500D01*
X204842158Y-90534917D01*
X204837470Y-90586187D01*
X204835370Y-90658835D01*
X204835334Y-90670371D01*
X204835334Y-90825241D01*
X205417417Y-91107783D01*
X205417417Y-91107783D01*
G37*
X205417417Y-91107783D02*
X205562081Y-91178477D01*
X205693637Y-91243674D01*
X205807457Y-91301011D01*
X205898916Y-91348121D01*
X205963386Y-91382639D01*
X205996241Y-91402200D01*
X205999500Y-91405374D01*
X205980939Y-91417479D01*
X205928403Y-91444505D01*
X205846616Y-91484208D01*
X205740300Y-91534343D01*
X205614178Y-91592668D01*
X205472973Y-91656936D01*
X205417417Y-91681968D01*
X204835334Y-91943513D01*
X204835334Y-92099104D01*
X204837614Y-92172936D01*
X204843644Y-92225733D01*
X204852200Y-92247672D01*
X204853785Y-92247639D01*
X204875602Y-92237606D01*
X204932481Y-92210973D01*
X205021222Y-92169251D01*
X205138622Y-92113949D01*
X205281481Y-92046579D01*
X205446597Y-91968649D01*
X205630768Y-91881671D01*
X205830793Y-91787154D01*
X206043470Y-91686608D01*
X206144952Y-91638615D01*
X207417667Y-91036646D01*
X207417667Y-90729935D01*
X207158375Y-90852615D01*
X207036002Y-90911144D01*
X206893446Y-90980309D01*
X206748252Y-91051547D01*
X206617969Y-91116294D01*
X206615665Y-91117450D01*
X206332247Y-91259603D01*
X205596998Y-90887552D01*
X205433949Y-90805211D01*
X205282785Y-90729193D01*
X205147652Y-90661556D01*
X205032693Y-90604362D01*
X204942054Y-90559671D01*
X204879881Y-90529543D01*
X204850318Y-90516039D01*
X204848541Y-90515500D01*
X204842158Y-90534917D01*
X204837470Y-90586187D01*
X204835370Y-90658835D01*
X204835334Y-90670371D01*
X204835334Y-90825241D01*
X205417417Y-91107783D01*
M02*
