M48
; DRILL file {KiCad (5.1.4)-1} date 14/05/2020 10:00:16
; FORMAT={-:-/ absolute / metric / decimal}
; #@! TF.CreationDate,2020-05-14T10:00:16+09:00
; #@! TF.GenerationSoftware,Kicad,Pcbnew,(5.1.4)-1
FMAT,2
METRIC
T1C0.400
T2C0.500
T3C0.800
T4C0.900
T5C1.100
T6C1.397
T7C2.670
T8C3.500
%
G90
G05
T1
X149.94Y-68.35
X149.99Y-110.44
X150.16Y-128.62
X150.174Y-52.778
X150.28Y-76.61
X151.12Y-104.7
X152.23Y-71.29
X152.35Y-119.43
X152.48Y-109.14
X154.686Y-71.374
X154.94Y-110.49
X156.21Y-68.326
X156.21Y-75.184
X156.71Y-63.1
X157.13Y-113.64
X158.75Y-106.68
X159.47Y-119.46
X160.59Y-65.79
X161.517Y-52.875
X161.69Y-128.76
X162.306Y-75.184
X162.56Y-110.49
X162.56Y-116.84
X163.83Y-68.58
X165.1Y-80.01
X165.1Y-102.87
X165.1Y-121.92
X165.3Y-109.02
X165.3Y-116.64
X165.4Y-73.36
X167.64Y-64.77
X167.64Y-110.49
X167.64Y-116.84
X168.91Y-73.66
X169.27Y-66.95
X169.65Y-122.75
X171.45Y-120.65
X171.45Y-125.21
X173.99Y-64.77
X174.49Y-90.17
X174.49Y-92.62
X176.53Y-69.85
X176.89Y-66.95
X176.97Y-122.75
X177.44Y-73.68
X177.8Y-99.06
X177.8Y-120.65
X177.8Y-125.21
X177.91Y-80.07
X179.07Y-106.68
X180.24Y-112.69
X180.34Y-64.77
X180.55Y-97.76
X181.51Y-82.81
X181.82Y-69.45
X182.1Y-91.24
X182.13Y-109.19
X182.19Y-118.26
X182.35Y-75.89
X182.96Y-105.1
X183.55Y-97.76
X183.56Y-101.48
X183.6Y-120.1
X183.642Y-61.722
X184.15Y-123.19
X184.45Y-113.58
X184.82Y-84.74
X185.17Y-79.42
X186.02Y-72.02
X186.69Y-120.65
X187.3Y-111.9
X188.18Y-107.21
X188.22Y-75.79
X188.722Y-59.182
X189.11Y-70.09
X189.59Y-113.75
X189.69Y-66.77
X190.5Y-122.174
X191.17Y-107.5
X191.34Y-110.37
X191.64Y-75.69
X191.77Y-86.36
X191.77Y-95.758
X192.024Y-102.87
X193.04Y-62.992
X193.04Y-117.856
X194.47Y-113.78
X194.59Y-66.81
X196.596Y-59.182
X196.85Y-122.174
X200.66Y-62.992
X200.66Y-68.834
X200.66Y-78.232
X200.66Y-86.36
X200.66Y-95.758
X200.66Y-117.856
X200.914Y-102.87
X200.914Y-112.268
X203.2Y-122.174
X203.962Y-59.182
X205.232Y-53.086
X205.74Y-128.778
X206.48Y-121.98
X207.01Y-74.422
X207.01Y-107.188
X208.28Y-62.992
X208.28Y-69.596
X208.28Y-86.36
X208.28Y-95.758
X208.28Y-111.76
X208.28Y-117.856
X208.97Y-79.0
X213.45Y-105.9
X213.99Y-77.33
X214.68Y-63.042
X214.68Y-69.646
X215.02Y-111.76
X215.02Y-117.856
X225.806Y-77.47
X225.806Y-104.902
T2
X153.415Y-55.85
X154.184Y-53.994
X154.184Y-57.706
X156.04Y-53.225
X156.04Y-58.475
X157.896Y-53.994
X157.896Y-57.706
X158.665Y-55.85
X208.349Y-125.724
X209.118Y-123.868
X209.118Y-127.58
X210.974Y-123.099
X210.974Y-128.349
X212.83Y-123.868
X212.83Y-127.58
X213.599Y-125.724
X153.385Y-125.71
X154.154Y-123.854
X154.154Y-127.566
X156.01Y-123.085
X156.01Y-128.335
X157.866Y-123.854
X157.866Y-127.566
X158.635Y-125.71
X208.275Y-55.85
X209.044Y-53.994
X209.044Y-57.706
X210.9Y-53.225
X210.9Y-58.475
X212.756Y-53.994
X212.756Y-57.706
X213.525Y-55.85
T3
X171.87Y-96.0
X182.03Y-96.0
X189.9Y-78.23
X189.9Y-80.23
X221.9Y-105.1
X221.9Y-107.1
X162.5Y-89.0
X165.04Y-86.46
X167.58Y-89.0
X155.2Y-100.62
X155.2Y-104.12
X179.38Y-109.13
X189.54Y-109.13
X162.5Y-96.0
X165.04Y-93.46
X167.58Y-96.0
X171.91Y-86.47
X182.07Y-86.47
X161.2Y-78.1
X161.2Y-83.1
X210.7Y-80.2
X210.7Y-90.36
X161.1Y-99.1
X161.1Y-104.1
X179.73Y-73.73
X189.89Y-73.73
X155.4Y-77.95
X155.4Y-81.45
X216.76Y-74.36
X216.76Y-79.36
X179.05Y-103.06
X181.05Y-103.06
X222.05Y-75.6
X222.05Y-77.6
X210.71Y-92.81
X210.71Y-102.97
X216.7Y-102.1
X216.7Y-107.1
T4
X210.71Y-74.05
X210.71Y-76.59
X210.69Y-106.98
X210.69Y-109.52
T5
X182.22Y-66.95
X184.76Y-66.95
X187.3Y-66.95
X182.16Y-116.0
X184.7Y-116.0
X187.24Y-116.0
T6
X152.23Y-65.8
X157.31Y-65.8
X219.11Y-112.0
X219.11Y-119.0
X219.11Y-126.0
X224.19Y-112.0
X224.19Y-119.0
X224.19Y-126.0
X219.06Y-56.0
X219.06Y-63.0
X219.06Y-70.0
X224.14Y-56.0
X224.14Y-63.0
X224.14Y-70.0
X152.1Y-87.84
X152.1Y-94.665
X157.18Y-87.84
X157.18Y-94.665
X219.11Y-84.14
X219.11Y-91.14
X219.11Y-98.14
X224.19Y-84.14
X224.19Y-91.14
X224.19Y-98.14
X152.48Y-116.34
X157.56Y-116.34
T7
X172.0Y-70.99
X197.4Y-70.99
X172.0Y-111.95
X197.4Y-111.95
T8
X156.04Y-55.85
X210.974Y-125.724
X156.01Y-125.71
X210.9Y-55.85
T0
M30
